<?xml version="1.0" standalone="no"?>
<!DOCTYPE svg PUBLIC "-//W3C//DTD SVG 1.1//EN" "http://www.w3.org/Graphics/SVG/1.1/DTD/svg11.dtd" >
<svg xmlns="http://www.w3.org/2000/svg">
<metadata></metadata>
<defs>
<font id="mockupitalic" horiz-adv-x="1135" >
<font-face units-per-em="2048" ascent="1638" descent="-410" />
<missing-glyph horiz-adv-x="465" />
<glyph unicode="&#xfb01;" horiz-adv-x="1214" d="M164 -410l191 1085h-150l18 100q8 43 37 71.5t66 28.5h65l26 150q79 450 453 450l-35 -200q-114 0 -164.5 -55t-75.5 -195l-27 -150h193l-36 -200h-192l-191 -1085h-178zM895 0l151 855q8 41 37.5 68t67.5 27h89l-167 -950h-178zM1104 1239q8 49 46 83t83 34t70.5 -34 t17.5 -83t-46 -83t-83 -34t-70.5 34t-17.5 83z" />
<glyph unicode="&#xfb02;" horiz-adv-x="1204" d="M164 -410l191 1085h-150l18 100q8 43 37 71.5t66 28.5h65l26 150q79 450 453 450l-35 -200q-114 0 -164.5 -55t-75.5 -195l-27 -150h193l-36 -200h-192l-191 -1085h-178zM891 0l242 1375q8 43 38.5 71.5t68.5 28.5h89l-261 -1475h-177z" />
<glyph unicode="&#xfb03;" horiz-adv-x="2018" d="M164 -410l191 1085h-150l18 100q8 43 37 71.5t66 28.5h65l26 150q79 450 453 450l-35 -200q-114 0 -164.5 -55t-75.5 -195l-27 -150h193l-36 -200h-192l-191 -1085h-178zM968 -410l191 1085h-150l18 100q8 43 37 71.5t66 28.5h65l26 150q79 450 453 450l-35 -200 q-114 0 -164.5 -55t-75.5 -195l-27 -150h193l-36 -200h-192l-191 -1085h-178zM1699 0l151 855q8 41 37.5 68t67.5 27h89l-167 -950h-178zM1908 1239q8 49 46 83t83 34t70.5 -34t17.5 -83t-46 -83t-83 -34t-70.5 34t-17.5 83z" />
<glyph unicode="&#xfb04;" horiz-adv-x="2008" d="M164 -410l191 1085h-150l18 100q8 43 37 71.5t66 28.5h65l26 150q79 450 453 450l-35 -200q-114 0 -164.5 -55t-75.5 -195l-27 -150h193l-36 -200h-192l-191 -1085h-178zM968 -410l191 1085h-150l18 100q8 43 37 71.5t66 28.5h65l26 150q79 450 453 450l-35 -200 q-114 0 -164.5 -55t-75.5 -195l-27 -150h193l-36 -200h-192l-191 -1085h-178zM1695 0l242 1375q8 43 38.5 71.5t68.5 28.5h89l-261 -1475h-177z" />
<glyph horiz-adv-x="0" />
<glyph horiz-adv-x="682" />
<glyph unicode=" "  horiz-adv-x="465" />
<glyph unicode="&#x09;" horiz-adv-x="465" />
<glyph unicode="&#xa0;" horiz-adv-x="465" />
<glyph unicode="!" horiz-adv-x="409" d="M87 105q8 49 46 83t83 34t70.5 -34t17.5 -83t-46 -83t-83 -34t-70.5 34t-17.5 83zM187 375l175 1150h186l-231 -1150h-130z" />
<glyph unicode="&#x22;" horiz-adv-x="650" d="M290 1100l47 425h186l-103 -425h-130zM565 1100l47 425h186l-103 -425h-130z" />
<glyph unicode="#" d="M166 425l34 195h163l45 255h-163l36 200h162l53 300q8 41 41 70.5t70 29.5h84l-71 -400h274l71 400h177l-71 -400h163l-35 -200h-163l-45 -255h163l-35 -195h-163l-74 -425h-177l75 425h-275l-75 -425h-176l75 425h-163zM540 620h274l45 255h-274z" />
<glyph unicode="$" horiz-adv-x="1092" d="M161 396q8 44 38.5 72t71.5 28h93q-20 -133 55 -227t202 -94q87 0 166 57t94 143q10 55 -6 100.5t-51 76t-83 60t-101.5 53.5t-106.5 55t-99 65.5t-78.5 85t-44.5 113t3 150.5q23 130 119 225.5t222 127.5l18 185l188 16l-20 -197q154 -33 238.5 -170.5t53.5 -313.5h-186 q20 121 -46 207t-181 86q-74 0 -141 -47t-79 -118q-8 -46 5 -84.5t41.5 -67t69 -55t87 -48.5t95 -49t94 -55t83.5 -67t63.5 -85.5t34 -109.5t-4.5 -139q-25 -141 -132 -247t-245 -140l-18 -180l-189 -16l19 190q-166 28 -264.5 150t-77.5 264z" />
<glyph unicode="%" horiz-adv-x="1324" d="M136 65l1118 1352q34 42 84 42q29 0 50 -18l66 -57l-1187 -1433zM300 1184q23 131 124.5 223t222.5 92q122 0 191.5 -92.5t46.5 -222.5t-125 -222t-224 -92q-121 0 -190 91.5t-46 222.5zM459 1184q-10 -59 21.5 -101t86.5 -42t102 42t57 101t-22 101.5t-87 42.5 t-101 -42.5t-57 -101.5zM690 234q23 131 125 223t223 92t190.5 -92t46.5 -223t-125 -222.5t-223 -91.5q-122 0 -191 92t-46 222zM849 234q-10 -59 21.5 -101t86.5 -42t102 42t57 101t-21.5 101.5t-86.5 42.5t-102 -42.5t-57 -101.5z" />
<glyph unicode="&#x26;" horiz-adv-x="1219" d="M156 366q11 62 39 118.5t61.5 97.5t81 81t87 65.5t88.5 53.5q-16 35 -26.5 59.5t-24 65.5t-17.5 72t-7 78.5t7 86.5q26 145 135.5 250.5t241.5 105.5q133 0 207.5 -107.5t48.5 -254.5q-23 -130 -109 -236t-197 -180l160 -324q62 93 81 192h186q-38 -202 -181 -367 l111 -223h-230l-41 84q-171 -110 -348 -110q-80 0 -151 27.5t-122 76.5t-74 124.5t-7 163.5zM342 366q-10 -60 18 -105t78 -65.5t110 -20.5q119 0 230 71l-184 373q-113 -63 -159 -103q-79 -68 -93 -150zM631 1143q-17 -98 60 -259q177 118 201 254q11 65 -19 113.5 t-86 48.5q-55 0 -99.5 -46.5t-56.5 -110.5z" />
<glyph unicode="'" horiz-adv-x="345" d="M290 1100l47 425h186l-103 -425h-130z" />
<glyph unicode="(" horiz-adv-x="582" d="M185.5 249q-10.5 247 28.5 449q40 227 140.5 466.5t237.5 423.5h225q-154 -176 -265 -417.5t-152 -472.5q-40 -206 -20.5 -454.5t97.5 -416.5h-219q-62 175 -72.5 422z" />
<glyph unicode=")" horiz-adv-x="582" d="M90 -173q138 168 241.5 409t142.5 462q42 221 15.5 467.5t-118.5 422.5h225q73 -184 89 -428.5t-25 -461.5q-38 -218 -132 -457.5t-218 -413.5h-220z" />
<glyph unicode="*" horiz-adv-x="747" d="M274 1167l55 114l203 -96l28 255h112l-62 -255l237 96l15 -114l-242 -62l118 -196l-102 -70l-88 217l-163 -217l-78 70l187 196z" />
<glyph unicode="+" horiz-adv-x="902" d="M201 625l31 175h268l37 212q8 41 41 70.5t70 29.5h93l-55 -312h267l-31 -175h-267l-51 -287h-186l51 287h-268z" />
<glyph unicode="," horiz-adv-x="376" d="M85 -87q46 30 78 76q-41 5 -62.5 37.5t-13.5 78.5q8 49 46 83t83 34t70.5 -34t17.5 -83q-30 -173 -179 -274z" />
<glyph unicode="-" horiz-adv-x="740" d="M201 625l18 100q8 41 40.5 70.5t69.5 29.5h465l-35 -200h-558z" />
<glyph unicode="." horiz-adv-x="376" d="M87 105q8 49 46 83t83 34t70.5 -34t17.5 -83t-46 -83t-83 -34t-70.5 34t-17.5 83z" />
<glyph unicode="/" horiz-adv-x="1037" d="M86 -26l912 1496q16 26 42.5 41.5t53.5 15.5q20 0 37 -9l76 -42l-967 -1586z" />
<glyph unicode="0" horiz-adv-x="1165" d="M199.5 553q5.5 93 23.5 196q21 122 56.5 229t89.5 204t122.5 166.5t160 110.5t197.5 41q90 0 159 -29t112 -82t70 -123.5t34.5 -158t2 -180t-23.5 -195.5q-21 -122 -56 -230t-89 -206t-121.5 -168t-159.5 -111.5t-198 -41.5q-90 0 -159.5 29.5t-113 83t-70.5 124.5 t-34.5 159.5t-2 181.5zM390 584.5q-4 -78.5 5 -154t33.5 -131.5t72 -90t114.5 -34q66 0 124.5 33t102 87t79 127.5t58.5 150.5t38 160q19 107 20 202.5t-17.5 180t-71 134.5t-134.5 50t-152 -48.5t-119 -130t-82.5 -175.5t-51.5 -198q-15 -85 -19 -163.5z" />
<glyph unicode="1" horiz-adv-x="1011" d="M130 0l35 200h303l179 1020l-270 -253l-92 134l441 374h152l-224 -1275h302l-35 -200h-791z" />
<glyph unicode="2" horiz-adv-x="1116" d="M91 0l18 100q21 118 78 218t131.5 169t161 129.5t171.5 112.5t157 103.5t122.5 116.5t63.5 139q16 92 -41.5 152.5t-143.5 60.5q-119 0 -224.5 -90t-128.5 -214h-186q26 135 110.5 251t206 184.5t248.5 68.5q80 0 150 -29.5t119 -81.5t70.5 -130.5t5.5 -170.5 q-18 -99 -66 -181.5t-114.5 -141.5t-143.5 -111t-157.5 -100t-152 -97.5t-132 -115.5t-92.5 -142h739l-35 -200h-935z" />
<glyph unicode="3" horiz-adv-x="1025" d="M171 455h186q-17 -105 42 -180t158 -75q92 0 171.5 68t96.5 164q15 89 -30 163t-121 77l27 150q78 7 147 82.5t85 166.5q16 95 -36.5 162.5t-142.5 67.5q-94 0 -174 -72t-98 -173h-186q21 119 95 221.5t180 163t217 60.5q167 0 264.5 -126.5t66.5 -304.5 q-16 -90 -81.5 -175t-156.5 -144q73 -58 110 -142.5t20 -176.5q-21 -117 -95 -217t-179.5 -157.5t-214.5 -57.5q-174 0 -277.5 134.5t-73.5 320.5z" />
<glyph unicode="4" horiz-adv-x="1183" d="M158 381l29 162l839 923q36 38 80 38q38 0 60 -30t15 -70l-145 -823h159l-35 -200h-159l-67 -381h-186l67 381h-657zM458 581h392l94 534z" />
<glyph unicode="5" horiz-adv-x="1141" d="M180 504h186q-24 -134 48 -230.5t195 -96.5q115 0 216.5 89t123.5 212q24 134 -56 229t-210 95q-72 0 -127.5 -16.5t-87 -39.5t-55.5 -46t-46.5 -39.5t-45.5 -16.5q-38 0 -60.5 30t-15.5 70l116 656q8 41 41 70.5t70 29.5h774l-36 -200h-681l-63 -359q126 61 254 61 q134 0 238.5 -69.5t153 -191t23.5 -263.5q-24 -135 -109.5 -251t-207 -183t-246.5 -67q-128 0 -227.5 71.5t-144.5 193t-20 262.5z" />
<glyph unicode="6" horiz-adv-x="1165" d="M197 496.5q2 111.5 25 244.5q22 123 57.5 230t93 206t131 169t175 112t221.5 42q114 -1 203.5 -63.5t131.5 -168t23 -226.5l-187 -6q16 108 -45 186t-162 78q-88 0 -157 -28t-117 -75.5t-84.5 -125.5t-60 -164t-44.5 -204q82 88 184.5 143t197.5 55q117 0 209.5 -66 t135 -177.5t20.5 -238.5q-33 -185 -183 -313.5t-323 -128.5q-121 0 -209.5 39t-139.5 106.5t-74.5 165t-21.5 209zM384 470q10 -66 26.5 -114t48.5 -91.5t86.5 -66t131.5 -22.5q97 0 181.5 70.5t102.5 171.5q19 111 -47 196t-170 85q-224 0 -360 -229z" />
<glyph unicode="7" horiz-adv-x="1058" d="M320 1300l18 100q8 41 40.5 70.5t69.5 29.5h784l-26 -151q-455 -625 -635 -1349h-187q168 688 575 1300h-639z" />
<glyph unicode="8" horiz-adv-x="1118" d="M159 383q9 52 36.5 101.5t59 85t79 72.5t80 58t78.5 47q-16 13 -27 22.5t-27.5 24.5t-28.5 27.5t-27 30t-25.5 34t-21 36t-17 39.5t-11 42t-4 46.5t4.5 49.5q17 94 70 172t126.5 127t158.5 75.5t171 26.5q83 0 156 -26.5t126 -74.5t76.5 -123.5t7.5 -166.5 q-11 -63 -46.5 -120.5t-89.5 -104t-98.5 -77t-100.5 -61.5q39 -24 69 -46t66.5 -59t58.5 -74t33 -88t1 -106q-17 -94 -70 -171.5t-126.5 -126t-159 -74.5t-171.5 -26q-90 0 -169.5 26.5t-139.5 75.5t-87.5 128.5t-10.5 177.5zM346 386q-18 -103 59.5 -157.5t194.5 -54.5 q108 0 199 50.5t108 146.5q10 58 -9.5 106.5t-66.5 84t-84.5 56.5t-91.5 44q-65 -22 -126 -56t-116 -93.5t-67 -126.5zM494 1099q-16 -94 44.5 -167t145.5 -107q53 18 101.5 42t99 59t85.5 83.5t45 103.5q16 89 -51.5 138t-165.5 49q-106 0 -196.5 -52.5t-107.5 -148.5z" />
<glyph unicode="9" horiz-adv-x="1165" d="M168 435l187 6q-16 -108 44.5 -186t161.5 -78q88 0 157 28t117 75.5t84.5 125.5t60 164t44.5 204q-82 -88 -184 -143t-197 -55q-117 0 -209.5 66t-135 177.5t-20.5 238.5q33 185 182.5 313.5t322.5 128.5q121 0 209.5 -39t139.5 -106.5t75 -165t22 -209t-25 -244.5 q-22 -122 -57.5 -229.5t-93 -206.5t-131.5 -169.5t-175.5 -112t-221.5 -41.5q-114 1 -203.5 63.5t-131 168t-22.5 226.5zM465 1059q-19 -111 46.5 -196t169.5 -85q224 0 360 229q-10 66 -26.5 114t-48.5 91.5t-86.5 66t-131.5 22.5q-97 0 -181 -70.5t-102 -171.5z" />
<glyph unicode=":" horiz-adv-x="409" d="M87 105q8 49 46 83t83 34t70.5 -34t17.5 -83t-46 -83t-83 -34t-70.5 34t-17.5 83zM224 880q8 49 46 83t83 34t70.5 -34t17.5 -83t-46 -83t-83 -34t-70.5 34t-17.5 83z" />
<glyph unicode=";" horiz-adv-x="409" d="M85 -87q46 30 78 76q-41 5 -62.5 37.5t-13.5 78.5q8 49 46 83t83 34t70.5 -34t17.5 -83q-30 -173 -179 -274zM224 880q8 49 46 83t83 34t70.5 -34t17.5 -83t-46 -83t-83 -34t-70.5 34t-17.5 83z" />
<glyph unicode="&#x3c;" horiz-adv-x="750" d="M212 688q2 11 26 32l417 386h199l-434 -418l287 -418h-199l-281 386q-17 22 -15 32z" />
<glyph unicode="=" horiz-adv-x="902" d="M170 450l31 175h721l-31 -175h-721zM228 775l17 100q8 41 41 70.5t70 29.5h628l-36 -200h-720z" />
<glyph unicode="&#x3e;" horiz-adv-x="750" d="M139 270l434 418l-287 418h199l281 -386q17 -22 15 -32t-27 -32l-416 -386h-199z" />
<glyph unicode="?" horiz-adv-x="1075" d="M286 1097q35 175 178.5 300.5t307.5 125.5q108 0 190.5 -58.5t120 -158t16.5 -215.5q-27 -149 -134.5 -267t-241.5 -153l-52 -296h-186l67 383q7 42 43.5 70.5t84.5 46.5t96.5 40t87.5 66t51 109q17 95 -36 165t-142 70q-91 0 -168.5 -66.5t-96.5 -161.5h-186zM437 105 q8 49 46 83t83 34t70.5 -34t17.5 -83t-46 -83t-83 -34t-70.5 34t-17.5 83z" />
<glyph unicode="@" horiz-adv-x="1930" d="M100 324q0 148 42 291t115 261.5t173 219t213.5 169.5t239.5 108t249 39q198 0 358 -96t250 -264t90 -374q0 -315 -158.5 -496.5t-427.5 -181.5h-186l20 113q-119 -138 -269 -138q-105 0 -185.5 56t-121.5 148.5t-41 205.5q0 96 29 189t80 169t117 134.5t145 90.5t158 32 q149 0 220 -139l7 39q7 44 38.5 72t72.5 28h93l-141 -800q361 0 361 440q0 161 -70 291.5t-195 205.5t-280 75q-115 0 -232.5 -42.5t-220 -121.5t-182.5 -182t-126.5 -235t-46.5 -270q0 -163 69.5 -297t195.5 -211.5t283 -77.5q220 0 422 144l85 -158q-259 -186 -544 -186 q-151 0 -282 58t-222 158.5t-143 238.5t-52 294zM651 419q0 -107 56.5 -175.5t156.5 -68.5q134 0 222.5 115t88.5 280q0 104 -52 167t-150 63q-130 0 -226 -113.5t-96 -267.5z" />
<glyph unicode="A" d="M91 0l168 950q45 256 190.5 390.5t378.5 134.5q233 1 331 -135q67 -93 67 -242q0 -68 -14 -148l-168 -950h-186l119 675h-581l-119 -675h-186zM431 875h582l13 75q11 62 11 111q-1 87 -35 137q-54 76 -209.5 76.5t-236.5 -76t-111 -248.5z" />
<glyph unicode="B" horiz-adv-x="1181" d="M91 0l242 1375q8 41 41 70.5t70 29.5h442q200 0 303 -102q77 -76 77 -206q0 -44 -9 -94q-17 -97 -87.5 -181.5t-149.5 -117.5q76 -38 122 -132q33 -66 33 -139q0 -30 -6 -62q-38 -215 -183.5 -328t-359.5 -113h-535zM312 200h349q150 0 223.5 53.5t97.5 186.5q6 34 6 62 q0 81 -48 120q-65 53 -218 53h-326zM431 875h326q152 0 223 42.5t91 155.5q5 29 5 53q0 72 -44 114q-59 54 -178 55h-349z" />
<glyph unicode="C" horiz-adv-x="1162" d="M202 545q2 91 18 184q20 114 59.5 223.5t101 209t137 174.5t174 119.5t205.5 44.5q116 0 204.5 -63t128.5 -171q25 -69 25 -145q0 -42 -8 -87h-186q5 27 5 51q0 77 -45 139q-59 81 -158 81q-91 0 -171 -51.5t-136 -136t-94 -183.5t-56 -204q-14 -81 -16 -159v-14 q0 -71 14 -137q16 -72 46.5 -126t85 -86.5t126.5 -32.5q104 0 193 81t109 192h186q-22 -126 -100.5 -235.5t-191.5 -173.5t-231 -64q-89 0 -161 30t-121 83.5t-82 125.5t-47 156q-13 77 -14 158v17z" />
<glyph unicode="D" horiz-adv-x="1229" d="M91 0l242 1375q8 41 41 70.5t70 29.5h302q342 -1 462 -195q77 -124 78 -327q0 -115 -25 -254q-61 -347 -256 -523t-519 -176h-395zM312 200h210q133 0 227 28t159 91t104 155.5t63 228.5q23 131 23 232q0 49 -6 93q-16 130 -108 196t-270 66h-210z" />
<glyph unicode="E" horiz-adv-x="1042" d="M91 0l242 1375q8 41 41 70.5t70 29.5h767l-32 -185h-675l-73 -415h512l-35 -200h-512l-84 -475h675l-36 -200h-860z" />
<glyph unicode="F" horiz-adv-x="1042" d="M91 0l242 1375q8 41 41 70.5t70 29.5h767l-33 -190h-674l-73 -410h512l-35 -200h-512l-119 -675h-186z" />
<glyph unicode="G" horiz-adv-x="1162" d="M202 545q2 91 18 184q20 114 59.5 223.5t101 209t137 174.5t174 119.5t205.5 44.5q116 0 204.5 -63t128.5 -171q25 -69 25 -145q0 -42 -8 -87h-186q5 26 5 51q0 76 -45 136q-59 79 -159 79q-74 0 -140.5 -33.5t-116.5 -89.5t-91 -130.5t-67 -154t-41 -162.5 q-14 -81 -16 -159v-14q0 -70 14 -137q16 -72 46.5 -126t85 -86.5t126.5 -32.5q104 0 193 81t109 192l23 127h-326l35 200h512l-137 -775h-93q-38 0 -60 30q-17 23 -17 51q0 9 2 19q-134 -125 -276 -125q-89 0 -161 30t-121 83.5t-82 125t-47 156.5q-14 76 -14 158v17z" />
<glyph unicode="H" d="M91 0l242 1375q8 41 41 70.5t70 29.5h93l-106 -600h582l105 600h186l-260 -1475h-186l119 675h-581l-119 -675h-186z" />
<glyph unicode="I" horiz-adv-x="995" d="M114 0l36 200h302l192 1090h-326l15 85q8 41 41 70.5t70 29.5h721l-33 -185h-302l-192 -1090h302l-35 -200h-791z" />
<glyph unicode="J" horiz-adv-x="894" d="M84 221l179 104q21 -55 68.5 -90t115.5 -35q112 0 173 78.5t86 221.5l139 790h-488l15 85q8 43 39 71.5t71 28.5h582l-172 -975q-40 -226 -164 -363t-316 -137q-120 0 -205 62.5t-123 158.5z" />
<glyph unicode="K" horiz-adv-x="1048" d="M91 0l242 1375q7 43 39 71.5t72 28.5h93l-114 -645l562 645h233l-528 -606q152 -145 224 -374q43 -138 43 -290q0 -100 -19 -205h-186q15 85 15 166q1 124 -35 238q-58 188 -182 305l-186 -213l-87 -496h-186z" />
<glyph unicode="L" horiz-adv-x="1042" d="M91 0l242 1375q8 41 41 70.5t70 29.5h93l-225 -1275h675l-36 -200h-860z" />
<glyph unicode="M" horiz-adv-x="1298" d="M91 0l242 1375q8 41 41 70.5t70 29.5q21 0 39 -11.5t26 -24.5l304 -508l516 544h138l-260 -1475h-186l194 1099l-456 -477l-288 477l-194 -1099h-186z" />
<glyph unicode="N" horiz-adv-x="1191" d="M91 0l242 1375q8 41 41 70.5t70 29.5h70l466 -1106l195 1106h186l-260 -1475h-186l-451 1060l-187 -1060h-186z" />
<glyph unicode="O" horiz-adv-x="1258" d="M223 749q23 130 59 239t92.5 205.5t129 163t172.5 105t220 38.5q428 0 428 -489q0 -124 -28 -279q-23 -131 -58.5 -240t-91.5 -206.5t-128 -165t-172 -106.5t-220 -39q-431 0 -431 492q0 125 28 282zM388 533q0 -97 23.5 -180.5t86.5 -130.5t163 -47q98 0 177 45.5 t131.5 126.5t86.5 175.5t54 210.5q16 93 20 171l2 44q0 56 -8 110q-12 75 -41.5 127t-85.5 83.5t-136 31.5q-79 0 -146.5 -30t-116 -81t-87 -123t-62.5 -149.5t-40 -168.5q-21 -118 -21 -215z" />
<glyph unicode="P" horiz-adv-x="1181" d="M91 0l242 1375q8 41 41 70.5t70 29.5h442q212 0 320 -108q80 -80 80 -217q0 -47 -10 -100q-37 -209 -182.5 -317t-357.5 -108h-349l-110 -625h-186zM422 825h349q134 0 215.5 51t103.5 174q6 32 6 60q0 80 -48 122q-64 58 -195 58h-349z" />
<glyph unicode="Q" horiz-adv-x="1258" d="M223 749q23 130 59 239t92.5 205.5t129 163t172.5 105t220 38.5q428 0 428 -489q0 -124 -28 -279q-122 -694 -585 -752q13 -56 54 -89t101 -33q85 0 153 66l113 -135q-136 -131 -302 -131q-141 0 -227.5 91t-86.5 235q-321 59 -321 484q0 124 28 281zM388 533 q0 -97 23.5 -180.5t86.5 -130.5t163 -47q98 0 177 45.5t131.5 126.5t86.5 175.5t54 210.5q16 93 20 171q2 23 2 44q0 56 -8 110q-12 75 -41.5 127t-85.5 83.5t-136 31.5q-79 0 -146.5 -30t-116 -81t-87 -123t-62.5 -149.5t-40 -168.5q-21 -118 -21 -215z" />
<glyph unicode="R" horiz-adv-x="1181" d="M91 0l242 1375q8 41 41 70.5t70 29.5h442q212 0 320 -108q80 -80 80 -217q0 -47 -10 -100q-29 -165 -127.5 -267.5t-246.5 -138.5q96 -122 136 -286q21 -88 22 -185q0 -83 -16 -173h-186q13 73 13 143q0 110 -32 214q-52 169 -162 268h-290l-110 -625h-186zM422 825h349 q134 0 215.5 51t103.5 174q6 32 6 60q0 80 -48 122q-64 58 -195 58h-349z" />
<glyph unicode="S" horiz-adv-x="1092" d="M161 396q8 44 38.5 72t71.5 28h93q-4 -28 -4 -54q0 -99 59 -173q75 -94 202 -94q87 0 166 57t94 143q4 21 4 41q0 32 -10 60q-16 46 -51 76t-83 59.5t-101.5 53.5t-106.5 55t-99 65.5t-78 84.5q-33 52 -45 114q-5 28 -5 60q0 41 8 90q28 158 160 262t285 104 q123 0 217 -67q96 -67 138 -181q28 -74 27 -155q0 -44 -8 -90h-186q5 28 5 54q0 87 -51 153q-66 86 -181 86q-74 0 -141 -47t-79 -118q-3 -18 -3 -34q0 -27 8 -51q13 -38 41.5 -66.5t69 -55t87 -48.5t95 -49t94 -55t83.5 -67t63.5 -85.5t33.5 -109.5q3 -25 4 -52 q0 -41 -8 -87q-20 -112 -95 -205t-178 -144t-209 -51q-131 0 -235.5 61.5t-154.5 158.5q-38 75 -38 153q0 24 3 48z" />
<glyph unicode="T" d="M316 1275l17 100q8 41 41 70.5t70 29.5h860l-35 -200h-395l-225 -1275h-186l225 1275h-372z" />
<glyph unicode="U" d="M184 525l149 850q8 41 41 70.5t70 29.5h93l-167 -950q-11 -62 -11 -111q1 -88 35 -138q54 -76 209.5 -76t236.5 76.5t111 248.5l167 950h186l-167 -950q-45 -255 -190.5 -390t-378.5 -135t-331 134q-67 92 -67 242q0 68 14 149z" />
<glyph unicode="V" horiz-adv-x="1479" d="M338 1362q-2 7 -2 16t2 20q5 30 26 56.5t47 37.5l91 38l263 -1268l681 1213h202l-832 -1475h-199z" />
<glyph unicode="W" horiz-adv-x="1623" d="M184 525l149 850q8 41 41 70.5t70 29.5h93l-167 -950q-10 -59 -13 -103q-1 -14 -1 -28q0 -30 4 -60q6 -44 25.5 -72t56.5 -45t92 -17q68 0 116 21t79 66.5t49 100t33 137.5l84 475h186l-84 -475q-15 -91 -15 -159v-16q2 -72 45.5 -111t133.5 -39q54 0 97 17t72 45.5 t51 72t35 88t23 102.5l168 950h186l-168 -950q-43 -246 -167 -385.5t-332 -139.5q-55 0 -99.5 14t-80 43.5t-55.5 51t-49 60.5q-42 -38 -70 -60t-73.5 -51.5t-95.5 -43.5t-105 -14q-208 0 -283 139q-47 88 -47 218q0 77 16 168z" />
<glyph unicode="X" horiz-adv-x="1292" d="M91 0l571 735l-260 611q-9 21 -3 56q12 64 69 90l82 38l257 -609l430 554h225l-577 -739l310 -736h-221l-234 550l-429 -550h-220z" />
<glyph unicode="Y" d="M294 1150l39 225q8 41 41 70.5t70 29.5h93l-57 -325q-11 -61 -11 -111q0 -88 35 -137q54 -77 210 -77t236.5 76.5t110.5 248.5l57 325h186l-57 -325q-40 -228 -161 -360.5t-314 -158.5l-111 -631h-186l111 631q-184 25 -258 158q-49 86 -49 211q0 69 15 150z" />
<glyph unicode="Z" horiz-adv-x="1125" d="M91 0l28 158l887 1132h-665l15 85q8 41 40.5 70.5t69.5 29.5h828l-25 -144l-887 -1131h681l-35 -200h-937z" />
<glyph unicode="[" horiz-adv-x="584" d="M60 -173l293 1661q8 41 41 70.5t70 29.5h355l-35 -200h-262l-240 -1361h262l-35 -200h-449z" />
<glyph unicode="\" horiz-adv-x="1036" d="M367 1384q-14 58 33 107q15 17 35 26l92 42l408 -1586l-183 -85z" />
<glyph unicode="]" horiz-adv-x="584" d="M15 -173l35 200h263l240 1361h-263l18 100q8 41 41 70.5t70 29.5h355l-311 -1761h-448z" />
<glyph unicode="^" horiz-adv-x="802" d="M294 1150l266 294h192l162 -294h-151l-126 183l-193 -183h-150z" />
<glyph unicode="_" horiz-adv-x="1042" d="M56 -200l17 100q8 41 41 70.5t70 29.5h767l-35 -200h-860z" />
<glyph unicode="`" horiz-adv-x="588" d="M346 1444h192l162 -294h-150z" />
<glyph unicode="a" horiz-adv-x="963" d="M147 463q22 127 95 238.5t180 180t221 68.5q57 0 110.5 -37t81.5 -102l18 104l184 35l-167 -950h-89q-36 0 -57 30q-16 22 -16 51q0 9 2 19l2 13q-52 -65 -118 -101.5t-122 -36.5q-115 0 -198 68t-116 180q-20 67 -20 140q0 49 9 100zM325 465q-6 -32 -6 -62 q0 -78 38 -141q52 -87 151 -87q114 0 189 78.5t99 216.5q7 39 7 74q0 78 -35 130q-51 76 -159 76q-98 0 -181 -86t-103 -199z" />
<glyph unicode="b" horiz-adv-x="963" d="M87 0l242 1375q7 44 37.5 72t69.5 28h89l-118 -664q52 65 118 102t123 37q113 0 196 -68q84 -68 118 -180q20 -67 19 -141q0 -48 -8 -98q-22 -128 -95 -240t-180.5 -180t-222.5 -68q-56 0 -109 36.5t-82 101.5l-2 -13q-8 -41 -39 -70.5t-67 -29.5h-89zM326 470 q-8 -46 -8 -86q0 -78 32 -130q48 -78 161 -79q99 0 182 87.5t103 202.5q5 31 5 60q0 77 -38 139q-53 86 -151 86q-108 0 -185.5 -76.5t-100.5 -203.5z" />
<glyph unicode="c" horiz-adv-x="946" d="M147 463q23 130 100 242t188 178.5t228 66.5q130 0 217.5 -79.5t113.5 -199.5l-169 -76q-37 155 -194 155q-106 0 -196.5 -85.5t-110.5 -202.5q-5 -29 -5 -56q1 -82 45 -146q60 -86 165 -85q157 0 249 155l142 -76q-69 -120 -184 -199.5t-245 -79.5q-117 0 -205 67 q-86 67 -124 179q-23 69 -24 146q0 47 9 96z" />
<glyph unicode="d" horiz-adv-x="963" d="M147 463q22 127 95 238.5t180 180t221 68.5q57 0 110.5 -37t81.5 -102l98 556q8 48 38.5 78t69.5 30h89l-260 -1475h-89q-36 0 -57 30q-16 22 -16 51q0 9 2 19l2 13q-52 -65 -118 -101.5t-122 -36.5q-115 0 -198 68t-116 180q-20 67 -20 140q0 49 9 100zM325 465 q-6 -32 -6 -62q0 -78 38 -141q52 -87 151 -87q114 0 189 78.5t99 216.5q7 39 7 74q0 78 -35 130q-51 76 -159 76q-98 0 -181 -86t-103 -199z" />
<glyph unicode="e" horiz-adv-x="977" d="M147 465q23 130 100 241.5t187 177.5t225 66q111 0 195.5 -63t121.5 -171q23 -67 23 -141q0 -44 -8 -91l-18 -104h-661q7 -86 67 -145.5t150 -59.5q64 0 110 21t92 63l103 -125q-73 -76 -162.5 -117.5t-177.5 -41.5q-117 0 -206 67q-88 68 -126 180q-24 70 -24 147 q0 47 9 96zM357 580h467q-12 73 -66.5 121.5t-133.5 48.5t-152.5 -49t-114.5 -121z" />
<glyph unicode="f" horiz-adv-x="704" d="M164 -410l191 1085h-150l18 100q8 43 37 71.5t66 28.5h65l26 150q79 450 453 450l-35 -200q-114 0 -164.5 -55t-75.5 -195l-27 -150h193l-36 -200h-192l-191 -1085h-178z" />
<glyph unicode="g" horiz-adv-x="963" d="M127 -204l168 104q19 -55 62 -90t106 -35q103 0 160 78.5t82 221.5l7 39q-52 -65 -118 -102t-123 -37q-114 0 -197 68.5t-116 180.5q-21 67 -21 140q0 48 9 98q22 128 95 240t180.5 180t222.5 68q56 0 109 -36.5t82 -101.5l7 38q7 44 37 72t69 28h89l-157 -893 q-38 -218 -154.5 -350t-295.5 -132q-112 0 -190.5 62.5t-112.5 158.5zM324 460q-5 -31 -5 -60q0 -77 38 -139q53 -86 151 -86q108 0 185.5 76.5t100.5 203.5q8 46 8 86q0 78 -32 131q-47 78 -161 78q-99 0 -182 -87.5t-103 -202.5z" />
<glyph unicode="h" horiz-adv-x="943" d="M87 0l242 1375q8 41 39.5 70.5t67.5 29.5h89l-112 -633q113 108 225 108q131 0 206.5 -63.5t91.5 -174.5q6 -44 7 -95q0 -76 -15 -166l-79 -451h-178l78 445q15 88 15 152v11q-2 68 -41.5 105t-122.5 37q-63 0 -107.5 -20t-73 -62.5t-45.5 -94t-31 -128.5l-79 -445h-177z " />
<glyph unicode="i" horiz-adv-x="368" d="M91 0l151 855q8 41 37.5 68t67.5 27h89l-167 -950h-178zM300 1239q8 49 46 83t83 34t71 -34q19 -26 19 -60q0 -11 -2 -23q-8 -49 -46 -83t-83 -34q-44 0 -70 34q-19 26 -20 60q0 11 2 23z" />
<glyph unicode="j" horiz-adv-x="371" d="M-460 -205l165 100q19 -52 64 -86t108 -34q105 0 161 75t81 213l140 791q7 41 36.5 68.5t66.5 27.5h86l-158 -893q-25 -142 -82 -248.5t-151.5 -170t-214.5 -63.5q-111 0 -189.5 62t-112.5 158zM320 1239q8 49 46 83t83 34t71 -34q19 -26 19 -60q0 -11 -2 -23 q-8 -49 -46 -83t-83 -34t-70 34q-20 26 -20 60q0 11 2 23z" />
<glyph unicode="k" horiz-adv-x="972" d="M87 0l242 1375q8 43 38.5 71.5t68.5 28.5h89l-140 -791l395 316h274l-358 -286l162 -714h-189l-133 586l-196 -156l-76 -430h-177z" />
<glyph unicode="l" horiz-adv-x="359" d="M87 0l242 1375q8 43 38.5 71.5t68.5 28.5h89l-261 -1475h-177z" />
<glyph unicode="m" horiz-adv-x="1528" d="M87 0l150 855q7 38 38.5 66.5t67.5 28.5h89l-19 -108q113 108 224 108q97 0 155 -51.5t101 -142.5q77 91 153.5 142.5t174.5 51.5q99 0 166.5 -36t99.5 -102q31 -66 39 -158q2 -23 3 -48q0 -72 -17 -155l-79 -451h-178l79 445q15 88 15 152q-1 5 -1 11q-2 68 -41 105 t-122 37q-123 0 -175.5 -67.5t-82.5 -237.5l-78 -445h-178l78 445q18 86 18 146q0 53 -14 87q-30 72 -153 72q-63 0 -107.5 -20t-73 -62.5t-45.5 -94t-31 -128.5l-79 -445h-177z" />
<glyph unicode="n" horiz-adv-x="943" d="M87 0l150 855q7 38 38.5 66.5t67.5 28.5h89l-19 -108q113 108 225 108q131 0 206.5 -63.5t91.5 -174.5q6 -44 7 -95q0 -76 -15 -166l-79 -451h-178l78 445q15 88 15 152v11q-2 68 -41.5 105t-122.5 37q-63 0 -107.5 -20t-73 -62.5t-45.5 -94t-31 -128.5l-79 -445h-177z " />
<glyph unicode="o" horiz-adv-x="962" d="M146 462q22 128 95.5 239.5t181.5 180t223 68.5q114 0 197.5 -68t117.5 -180q21 -68 21 -141q0 -48 -9 -97q-17 -95 -64.5 -184.5t-113.5 -156.5t-151 -107.5t-172 -40.5q-114 0 -198 69q-82 68 -116 180q-20 67 -21 140q0 48 9 98zM324 461q-5 -31 -6 -60q0 -77 39 -140 q53 -86 152 -86q100 0 182.5 87t102.5 202q6 31 6 61q0 77 -38 139q-52 86 -151 86q-100 0 -183.5 -87t-103.5 -202z" />
<glyph unicode="p" horiz-adv-x="963" d="M14 -410l223 1264q7 43 37 69.5t69 26.5h89l-24 -138q52 65 117.5 101.5t121.5 36.5q115 0 198.5 -68t116.5 -180q20 -67 20 -140q0 -49 -9 -100q-22 -127 -95.5 -238.5t-181 -180t-220.5 -68.5q-57 0 -110 37t-81 102l-93 -524h-178zM323 455q-7 -39 -7 -74 q0 -77 36 -129q51 -77 159 -77q98 0 181 86t103 199q6 32 6 62q0 78 -38 141q-52 87 -151 87q-114 0 -189.5 -78.5t-99.5 -216.5z" />
<glyph unicode="q" horiz-adv-x="963" d="M146 462q22 128 95 240t180.5 180t222.5 68q56 0 109 -36.5t82 -101.5l7 38q7 44 37 72t69 28h89l-240 -1360h-177l92 524q-52 -65 -118 -102t-123 -37q-114 0 -197 68.5t-116 180.5q-21 67 -21 140q0 48 9 98zM324 460q-5 -31 -5 -60q0 -77 38 -139q53 -86 151 -86 q108 0 185.5 76.5t100.5 203.5q8 46 8 86q0 78 -32 131q-47 78 -161 78q-99 0 -182 -87.5t-103 -202.5z" />
<glyph unicode="r" horiz-adv-x="914" d="M87 0l151 857q7 38 38 66.5t67 28.5h89l-19 -108q113 108 226 108q143 0 217 -84q70 -80 69 -224v-16h-177q-1 66 -34 95t-113 29q-121 0 -175.5 -73.5t-82.5 -231.5l-79 -447h-177z" />
<glyph unicode="s" horiz-adv-x="827" d="M121 175l164 105q22 -46 66 -76t104 -30q46 0 87.5 21t47.5 59q6 32 -15.5 56t-59 40.5t-83 33t-90.5 40t-80 54.5q-35 32 -51 84q-9 30 -9 65q0 27 5 56q14 81 68 143.5t124.5 93.5t143.5 31q114 0 197.5 -64t118.5 -171l-171 -92q-20 57 -68 92t-111 35 q-44 0 -82 -21.5t-45 -60.5q-5 -29 16 -51.5t59 -39t83.5 -33t90.5 -41t80 -56.5t51 -84q9 -30 9 -64q0 -26 -5 -55q-22 -126 -123.5 -197.5t-223.5 -71.5q-107 0 -183.5 55.5t-114.5 143.5z" />
<glyph unicode="t" horiz-adv-x="704" d="M219 750l35 200h150l10 59q10 57 21.5 97.5t32 82.5t52 64t74.5 22h45l-57 -325h192l-35 -200h-193l-56 -321q-9 -53 -9 -92q1 -57 19 -87q32 -50 145 -50l-35 -200q-311 0 -311 294q0 58 12 128l58 328h-150z" />
<glyph unicode="u" horiz-adv-x="943" d="M160 295q-2 23 -2 48q0 72 16 156l63 356q7 38 38.5 66.5t67.5 28.5h89l-79 -445q-9 -54 -12 -96q-1 -14 -1 -28q0 -28 4 -55q6 -41 23.5 -67.5t51.5 -42.5t84 -16t89.5 16t66.5 42.5t47.5 67.5t32.5 83t21 96l78 445h178l-79 -451q-41 -234 -157.5 -366.5t-311.5 -132.5 q-99 0 -167 36t-100.5 101.5t-40.5 157.5z" />
<glyph unicode="v" horiz-adv-x="1056" d="M249 924q11 62 43 76l108 48l165 -792l388 744h186l-524 -1000h-185l-180 884q-2 13 -2 24q0 8 1 16z" />
<glyph unicode="w" horiz-adv-x="1528" d="M160 295q-2 23 -2 48q0 72 16 156l63 356q7 38 38.5 66.5t67.5 28.5h89l-79 -445q-9 -54 -12 -96q-1 -14 -1 -28q0 -28 4 -55q6 -41 23.5 -67.5t51.5 -42.5t84 -16q120 0 174.5 74t82.5 231l54 304h177l-53 -304q-15 -88 -15 -152q1 -5 1 -11q2 -68 41.5 -105t122.5 -37 q62 0 107.5 23t74 68t45.5 95t29 119l79 445h177l-79 -451q-41 -234 -157 -366.5t-311 -132.5q-51 0 -92.5 14t-74.5 43.5t-51 51.5t-45 60q-39 -38 -65.5 -60t-69 -51.5t-89.5 -43.5t-98 -14q-99 0 -167 36t-100.5 101.5t-40.5 157.5z" />
<glyph unicode="x" horiz-adv-x="1016" d="M86 0l393 493l-179 372q-12 25 -6 59q10 53 52 84l75 56l188 -400l264 336h209l-395 -502l234 -498h-215l-153 327l-257 -327h-210z" />
<glyph unicode="y" horiz-adv-x="943" d="M104 -204l170 104q19 -55 62 -90t106 -35q103 0 160 78.5t82 221.5l6 33q-113 -108 -222 -108q-195 0 -265 132q-44 84 -44 208q0 73 15 159l63 356q7 38 38.5 66.5t67.5 28.5h89l-79 -445q-14 -85 -14 -148v-15q2 -68 41.5 -105t122.5 -37q63 0 107.5 20t73 62.5 t45.5 94t31 128.5l78 445h178l-157 -893q-38 -218 -154.5 -350t-296.5 -132q-112 0 -191 62.5t-113 158.5z" />
<glyph unicode="z" horiz-adv-x="873" d="M98 0l27 150l523 600h-429l17 100q8 41 38.5 70.5t64.5 29.5h584l-26 -150l-525 -600h441l-35 -200h-680z" />
<glyph unicode="{" horiz-adv-x="679" d="M217 717l80 54q51 35 74.5 90t36.5 132q19 108 45 196t67.5 169t94.5 136t129 87.5t168 32.5l-35 -200q-38 0 -69.5 -7t-55.5 -23.5t-42.5 -33.5t-34 -49t-25.5 -56t-20 -68.5t-16 -73.5t-15 -83q-13 -74 -58 -169t-84 -128q28 -24 40 -116t1 -158q-8 -45 -12.5 -73.5 t-9.5 -69t-5.5 -66.5t1.5 -58.5t9 -53t19.5 -42t31.5 -33.5t46 -20t61 -8l-36 -200q-80 0 -139.5 22t-95 65.5t-56 99t-24 130.5t3 152.5t23.5 171.5q11 60 2 97.5t-44 82.5z" />
<glyph unicode="|" horiz-adv-x="368" d="M56 -200l299 1700q8 41 41 70.5t70 29.5h93l-317 -1800h-186z" />
<glyph unicode="}" horiz-adv-x="679" d="M60 -175l35 200q34 0 64 8t53 20t43 33.5t34.5 42t28 53.5t22 58.5t17.5 66.5t14.5 69t13.5 73q11 65 56.5 157.5t82.5 116.5q-27 33 -39 129t1 168q8 47 12.5 73.5t9.5 66.5t5.5 63t-1.5 54t-9 48t-19.5 36.5t-31 29.5t-45 16.5t-60.5 6.5l35 200q92 0 156.5 -32.5 t98 -87.5t46.5 -136t8 -169t-24 -196q-9 -51 -11.5 -84t7.5 -73.5t37 -64.5l61 -54l-81 -71q-51 -45 -73.5 -82.5t-32.5 -97.5q-20 -114 -46 -204t-68 -174.5t-95.5 -140t-131 -89t-173.5 -33.5z" />
<glyph unicode="~" horiz-adv-x="833" d="M214 698q15 89 83.5 149t147.5 60q35 0 63.5 -13t48.5 -31.5t38.5 -37t42 -31.5t49.5 -13q12 0 23.5 10t13.5 24q2 7 0 15l159 78q13 -44 4 -93q-15 -89 -83.5 -149t-147.5 -60q-35 0 -63.5 13t-48.5 31.5t-38.5 37t-42 31.5t-49.5 13q-12 0 -23 -10t-13 -24q-2 -8 0 -15 l-159 -78q-14 46 -5 93z" />
<glyph unicode="&#xa1;" horiz-adv-x="409" d="M91 -12l231 1150h130l-175 -1150h-186zM354 1408q8 -49 46 -83t83 -34t70.5 34t17.5 83t-46 83t-83 34t-70.5 -34t-17.5 -83z" />
<glyph unicode="&#xa2;" horiz-adv-x="1056" d="M203 638q32 181 163.5 323.5t297.5 178.5l33 185q8 41 40.5 70.5t69.5 29.5h93l-50 -285q104 -25 174 -100t94 -176l-184 -82q-17 72 -73 120t-138 48q-115 0 -213 -93t-121 -220q-22 -126 43 -219t180 -93q82 0 155.5 48t115.5 120l155 -82q-61 -101 -157 -176.5 t-208 -99.5l-46 -260h-186l46 260q-154 36 -235 179t-49 324z" />
<glyph unicode="&#xa3;" horiz-adv-x="1062" d="M172 73q8 50 43 77q59 49 84 79q79 94 99 209q10 60 7 137h-167l18 100q8 43 39 71.5t71 28.5h19q-13 134 3 225q22 123 90 231.5t171.5 176t215.5 67.5q79 0 145 -36t105 -102q63 -106 38 -243q-9 -51 -24 -88l-173 46q10 25 12 40q13 76 -27 129.5t-106 53.5 q-44 0 -90.5 -23.5t-82.5 -63.5q-69 -77 -87 -182q-16 -93 0 -231h349l-35 -200h-295q2 -68 -10 -137q-18 -100 -69 -198q35 -5 118 -34t127 -29q66 0 119 49l108 -140q-122 -111 -264 -111q-69 0 -177 39q-79 30 -115 30q-57 0 -124 -47q-30 -22 -61 -22q-36 0 -58.5 28.5 t-15.5 69.5z" />
<glyph unicode="&#xa4;" horiz-adv-x="1226" d="M156 367l231 209q-37 94 -18 207q20 114 95 212l-160 213l156 141l163 -216q92 50 189 50q105 0 182 -58l248 224l106 -141l-249 -226q33 -93 14 -199q-18 -106 -80 -194l167 -222l-156 -142l-164 219q-102 -61 -209 -61q-101 0 -177 53l-232 -211zM559 783 q-14 -82 30 -141t121 -59t142 59t79 141t-30 141t-121 59t-142 -59t-79 -141z" />
<glyph unicode="&#xa5;" d="M228 120l26 145h268l23 134h-267l28 161h268l12 71q-184 25 -258.5 158t-33.5 361l39 225q8 41 41 70.5t70 29.5h93l-57 -325q-30 -172 24 -248.5t210 -76.5t236.5 76.5t110.5 248.5l57 325h186l-57 -325q-40 -228 -161 -360.5t-314 -158.5l-12 -71h267l-29 -161h-267 l-23 -134h267l-26 -145h-267l-21 -120h-186l21 120h-268z" />
<glyph unicode="&#xa6;" horiz-adv-x="368" d="M20 -400l127 717h186l-127 -717h-186zM241 853l114 647q8 41 41 70.5t70 29.5h93l-132 -747h-186z" />
<glyph unicode="&#xa7;" horiz-adv-x="990" d="M180 371h186q-14 -87 34 -148.5t130 -61.5q87 0 161.5 70t91.5 166q5 24 3 60q-109 -74 -228 -74q-154 0 -242.5 117t-59.5 283q17 91 64 169q-42 108 -20 235q32 178 171 306.5t303 128.5q158 0 248 -116q96 -121 68 -294h-186q14 87 -34 148.5t-131 61.5 q-87 0 -161.5 -70t-91.5 -166q-7 -40 -3 -68q105 65 216 65q154 0 242 -117t59 -283q-13 -77 -52 -148q44 -106 21 -239q-32 -178 -171 -306.5t-303 -128.5q-158 0 -248 116q-95 120 -67 294zM442 783q-14 -82 30 -141t121 -59t142 59t79 141t-30 141t-121 59t-142 -59 t-79 -141z" />
<glyph unicode="&#xa8;" horiz-adv-x="809" d="M324 1305q8 49 46 83t83 34t70.5 -34t17.5 -83t-46 -83t-83 -34t-70.5 34t-17.5 83zM699 1305q8 49 46 83t83 34t70.5 -34t17.5 -83t-46 -83t-83 -34t-70.5 34t-17.5 83z" />
<glyph unicode="&#xa9;" horiz-adv-x="1766" d="M220 504q-15 127 7 269q41 231 182 427.5t343.5 310.5t417.5 114q129 0 242.5 -43.5t196 -121t139 -184.5t71.5 -234t-7 -269q-41 -231 -182 -427.5t-343.5 -310.5t-417.5 -114q-129 0 -242.5 43.5t-196 121t-139 184.5t-71.5 234zM413 773q-31 -177 24 -327t179 -237.5 t289 -87.5t320 87.5t262.5 237.5t138.5 327t-23.5 327t-178.5 237.5t-289 87.5t-320 -87.5t-263 -237.5t-139 -327zM549 763q24 136 107 254t202.5 188t245.5 70q140 0 234.5 -81.5t124.5 -204.5l-183 -82q-17 72 -73.5 120t-138.5 48q-115 0 -212.5 -93t-120.5 -220 q-22 -126 43 -219t180 -93q82 0 155.5 48t115.5 120l154 -82q-73 -123 -196.5 -204.5t-263.5 -81.5q-126 0 -221 70.5t-136 188.5t-17 254z" />
<glyph unicode="&#xaa;" horiz-adv-x="641" d="M300 1331q21 123 109 215t191 92q34 0 66 -22t49 -61l4 23q4 26 22.5 43t41.5 17h54l-106 -600h-53q-22 0 -35 18t-8 42l1 8q-31 -39 -71 -61t-73 -22q-105 0 -159.5 91.5t-32.5 216.5zM407 1332q-13 -76 17.5 -132.5t89.5 -56.5q69 0 114.5 51.5t61.5 141.5 q14 83 -16 132.5t-94 49.5q-59 0 -109.5 -56t-63.5 -130z" />
<glyph unicode="&#xab;" horiz-adv-x="844" d="M185 506q-3 13 1 32q3 19 10 32l208 386h129l-179 -418l32 -418h-130zM535 506q-3 13 1 32q3 19 10 32l208 386h129l-179 -418l32 -418h-130z" />
<glyph unicode="&#xac;" horiz-adv-x="902" d="M201 625l18 100q8 41 40.5 70.5t69.5 29.5h628l-75 -425h-186l40 225h-535z" />
<glyph unicode="&#xad;" horiz-adv-x="975" d="M201 625l18 100q8 41 40.5 70.5t69.5 29.5h465l-35 -200h-558z" />
<glyph unicode="&#xae;" horiz-adv-x="1361" d="M275 1041q31 172 135 318t255 231t311 85t281 -85t174 -231t23 -318q-31 -172 -135.5 -318t-255.5 -231t-311 -85t-281 85t-174 231t-22 318zM375 1041q-25 -143 19 -264t144 -191.5t233 -70.5t258 70.5t212 191.5t112 264t-19 264t-144 191.5t-233 70.5t-258 -70.5 t-212 -191.5t-112 -264zM542 640l131 742q4 22 22 38t38 16h239q115 0 173 -58t38 -171q-16 -89 -69.5 -145t-133.5 -75q114 -143 77 -347h-101q18 101 -10.5 192.5t-87.5 144.5h-156l-59 -337h-101zM721 1085h189q150 0 172 122q12 66 -22 93.5t-107 27.5h-189z" />
<glyph unicode="&#xaf;" horiz-adv-x="902" d="M298 1175l18 100q8 41 40.5 70.5t69.5 29.5h628l-35 -200h-721z" />
<glyph unicode="&#xb0;" horiz-adv-x="497" d="M290 1386q16 91 87 155t155 64t132 -64t32 -155t-86.5 -154.5t-154.5 -63.5t-132.5 63.5t-32.5 154.5zM406 1386q-7 -39 14 -66t57 -27t66 27t37 66t-13.5 66.5t-56.5 27.5t-66.5 -27.5t-37.5 -66.5z" />
<glyph unicode="&#xb1;" horiz-adv-x="975" d="M210 250l18 100q8 41 40.5 70.5t69.5 29.5h465l-35 -200h-558zM241 850l31 175h268l37 212q8 41 41 70.5t70 29.5h93l-55 -312h267l-31 -175h-267l-51 -287h-186l51 287h-268z" />
<glyph unicode="&#xb2;" horiz-adv-x="742" d="M221 737l11 60q13 71 47 130.5t79 101.5t96.5 78t102.5 67t94 62t73.5 70t38.5 84q10 55 -24.5 91.5t-86.5 36.5q-72 0 -135 -54t-77 -129h-112q23 124 123 213.5t216 89.5q101 0 164 -69t44 -178q-14 -81 -63 -144t-113.5 -105.5t-130 -81t-124 -90t-84.5 -113.5h443 l-21 -120h-561z" />
<glyph unicode="&#xb3;" horiz-adv-x="687" d="M269 1010h112q-10 -63 25.5 -108t94.5 -45q55 0 102.5 41t57.5 98q9 54 -17.5 98.5t-72.5 45.5l16 90q46 4 87.5 49.5t51.5 100.5q10 57 -22 97.5t-85 40.5q-56 0 -105 -43.5t-59 -103.5h-111q20 109 106.5 188t188.5 79q100 0 159 -76t40 -183q-9 -53 -49 -104.5 t-94 -86.5q44 -35 66 -85.5t12 -106.5q-19 -106 -106.5 -182.5t-187.5 -76.5q-105 0 -166.5 80.5t-43.5 192.5z" />
<glyph unicode="&#xb4;" horiz-adv-x="588" d="M294 1150l266 294h192l-308 -294h-150z" />
<glyph unicode="&#xb5;" horiz-adv-x="944" d="M12 -425l225 1279q7 39 38.5 67.5t67.5 28.5h89l-79 -445q-16 -96 -14.5 -163.5t41.5 -104.5t123 -37q121 0 175.5 74t82.5 231l78 445h178l-168 -950h-177l19 108q-113 -108 -223 -108t-185 108l-93 -533h-178z" />
<glyph unicode="&#xb6;" horiz-adv-x="1028" d="M279 1064q30 170 162.5 290.5t290.5 120.5h465l-260 -1475h-186l225 1275h-93l-225 -1275h-186l115 653q-103 0 -181 55t-112.5 149.5t-14.5 206.5z" />
<glyph unicode="&#xb7;" horiz-adv-x="409" d="M206 780q8 49 46 83t83 34t70.5 -34t17.5 -83t-46 -83t-83 -34t-70.5 34t-17.5 83z" />
<glyph unicode="&#xb8;" horiz-adv-x="1048" d="M200 -281l137 62q11 -43 43 -70.5t81 -27.5q38 0 71 20.5t39 56.5q4 22 -8 37t-32 15q-10 0 -31 -8.5t-30 -8.5q-28 0 -44 24.5t-11 54.5q1 12 8 23l52 103h149l-23 -44q59 -16 90.5 -69t18.5 -127q-18 -100 -100 -163.5t-176 -63.5q-90 0 -152.5 53.5t-81.5 132.5z" />
<glyph unicode="&#xb9;" horiz-adv-x="679" d="M247 753l21 120h182l108 612l-163 -152l-55 81l265 224h91l-135 -765h182l-21 -120h-475z" />
<glyph unicode="&#xba;" horiz-adv-x="654" d="M299 1330q22 124 110.5 216t192.5 92q103 0 158.5 -92t34.5 -215q-22 -124 -110 -216t-193 -92q-104 0 -159 92t-34 215zM406 1330q-13 -75 18 -131t90 -56q60 0 110.5 56.5t63.5 131.5t-17.5 131t-89.5 56q-60 0 -111 -56.5t-64 -131.5z" />
<glyph unicode="&#xbb;" horiz-adv-x="844" d="M112 120l179 418l-31 418h129l71 -386q3 -13 -1 -32q-3 -19 -10 -32l-208 -386h-129zM462 120l179 418l-31 418h129l71 -386q3 -13 -1 -32q-3 -19 -10 -32l-208 -386h-129z" />
<glyph unicode="&#xbf;" horiz-adv-x="1075" d="M167 420q27 149 134.5 267t241.5 153l53 296h186l-68 -383q-7 -42 -43.5 -70.5t-84.5 -46.5t-96.5 -40t-87.5 -66t-51 -109q-17 -95 36 -165t142 -70q91 0 168.5 66.5t96.5 161.5h186q-35 -175 -178 -300.5t-307 -125.5q-108 0 -191 58.5t-120.5 158t-16.5 215.5z M687 1406q8 49 46 83t83 34t70.5 -34t17.5 -83t-46 -83t-83 -34t-70.5 34t-17.5 83z" />
<glyph unicode="&#xc0;" d="M91 0l168 950q45 256 190.5 390.5t378.5 134.5t331 -135.5t53 -389.5l-168 -950h-186l119 675h-581l-119 -675h-186zM431 875h582l13 75q30 172 -23.5 248.5t-209.5 76.5t-237 -76.5t-111 -248.5zM586 1916h192l162 -294h-150z" />
<glyph unicode="&#xc1;" d="M91 0l168 950q45 256 190.5 390.5t378.5 134.5t331 -135.5t53 -389.5l-168 -950h-186l119 675h-581l-119 -675h-186zM431 875h582l13 75q30 172 -23.5 248.5t-209.5 76.5t-237 -76.5t-111 -248.5zM809 1622l266 294h192l-308 -294h-150z" />
<glyph unicode="&#xc2;" d="M91 0l168 950q45 256 190.5 390.5t378.5 134.5t331 -135.5t53 -389.5l-168 -950h-186l119 675h-581l-119 -675h-186zM431 875h582l13 75q30 172 -23.5 248.5t-209.5 76.5t-237 -76.5t-111 -248.5zM556 1622l266 294h192l162 -294h-151l-126 183l-193 -183h-150z" />
<glyph unicode="&#xc3;" d="M91 0l168 950q45 256 190.5 390.5t378.5 134.5t331 -135.5t53 -389.5l-168 -950h-186l119 675h-581l-119 -675h-186zM431 875h582l13 75q30 172 -23.5 248.5t-209.5 76.5t-237 -76.5t-111 -248.5zM555 1715q15 89 83.5 149t147.5 60q35 0 63.5 -13t48.5 -31.5t38.5 -37 t42 -31.5t49.5 -13q12 0 23.5 10t13.5 24q1 8 0 15l159 78q13 -44 4 -93q-15 -89 -83.5 -149t-147.5 -60q-35 0 -63.5 13t-48.5 31.5t-38.5 37t-42 31.5t-49.5 13q-12 0 -23 -10t-13 -24q-1 -7 0 -15l-159 -78q-14 46 -5 93z" />
<glyph unicode="&#xc4;" d="M91 0l168 950q45 256 190.5 390.5t378.5 134.5t331 -135.5t53 -389.5l-168 -950h-186l119 675h-581l-119 -675h-186zM431 875h582l13 75q30 172 -23.5 248.5t-209.5 76.5t-237 -76.5t-111 -248.5zM609 1739q8 49 46 83t83 34t70.5 -34t17.5 -83t-46 -83t-83 -34t-70.5 34 t-17.5 83zM984 1739q8 49 46 83t83 34t70.5 -34t17.5 -83t-46 -83t-83 -34t-70.5 34t-17.5 83z" />
<glyph unicode="&#xc5;" d="M91 0l168 950q45 256 190.5 390.5t378.5 134.5t331 -135.5t53 -389.5l-168 -950h-186l119 675h-581l-119 -675h-186zM431 875h582l13 75q30 172 -23.5 248.5t-209.5 76.5t-237 -76.5t-111 -248.5zM699 1754q16 91 87 155t155 64t132 -64t32 -155t-86.5 -154.5 t-154.5 -63.5t-132.5 63.5t-32.5 154.5zM815 1754q-7 -39 14 -66t57 -27t66 27t37 66t-13.5 66.5t-56.5 27.5t-66.5 -27.5t-37.5 -66.5z" />
<glyph unicode="&#xc6;" horiz-adv-x="1670" d="M91 0l168 950q45 256 190.5 390.5t378.5 134.5h1011l-35 -200h-628l-70 -400h465l-36 -200h-465l-83 -475h627l-35 -200h-814l119 675h-488l-119 -675h-186zM431 875h489l70 400h-197q-156 0 -237 -76.5t-111 -248.5z" />
<glyph unicode="&#xc7;" horiz-adv-x="1162" d="M202 530.5q2 97.5 18 198.5q20 114 59.5 223.5t101 209t137 174.5t174 119.5t205.5 44.5q116 0 204.5 -63t128 -170.5t17.5 -232.5h-186q19 109 -40 190t-158 81q-91 0 -171 -51.5t-136 -136t-94 -183.5t-56 -204q-14 -81 -15.5 -159t14 -150.5t46 -126.5t85 -86.5 t126.5 -32.5q104 0 193 81t109 192h186q-31 -180 -171 -316.5t-309 -154.5l-15 -30q59 -16 90 -69t18 -127q-18 -100 -100 -163.5t-176 -63.5q-90 0 -152.5 53.5t-81.5 132.5l137 62q11 -43 43 -70.5t81 -27.5q38 0 71 20.5t39 56.5q4 22 -7.5 37t-31.5 15q-10 0 -31.5 -8.5 t-30.5 -8.5q-28 0 -44 24.5t-11 54.5q1 12 8 23l50 98q-82 19 -145.5 70.5t-101 123.5t-58.5 162.5t-19 188z" />
<glyph unicode="&#xc8;" horiz-adv-x="1042" d="M91 0l242 1375q8 41 41 70.5t70 29.5h767l-32 -185h-675l-73 -415h512l-35 -200h-512l-84 -475h675l-36 -200h-860zM536 1916h192l162 -294h-150z" />
<glyph unicode="&#xc9;" horiz-adv-x="1042" d="M91 0l242 1375q8 41 41 70.5t70 29.5h767l-32 -185h-675l-73 -415h512l-35 -200h-512l-84 -475h675l-36 -200h-860zM759 1622l266 294h192l-308 -294h-150z" />
<glyph unicode="&#xca;" horiz-adv-x="1042" d="M91 0l242 1375q8 41 41 70.5t70 29.5h767l-32 -185h-675l-73 -415h512l-35 -200h-512l-84 -475h675l-36 -200h-860zM506 1622l266 294h192l162 -294h-151l-126 183l-193 -183h-150z" />
<glyph unicode="&#xcb;" horiz-adv-x="1042" d="M91 0l242 1375q8 41 41 70.5t70 29.5h767l-32 -185h-675l-73 -415h512l-35 -200h-512l-84 -475h675l-36 -200h-860zM559 1739q8 49 46 83t83 34t70.5 -34t17.5 -83t-46 -83t-83 -34t-70.5 34t-17.5 83zM934 1739q8 49 46 83t83 34t70.5 -34t17.5 -83t-46 -83t-83 -34 t-70.5 34t-17.5 83z" />
<glyph unicode="&#xcc;" horiz-adv-x="995" d="M114 0l36 200h302l192 1090h-326l15 85q8 41 41 70.5t70 29.5h721l-33 -185h-302l-192 -1090h302l-35 -200h-791zM511 1916h192l162 -294h-150z" />
<glyph unicode="&#xcd;" horiz-adv-x="995" d="M114 0l36 200h302l192 1090h-326l15 85q8 41 41 70.5t70 29.5h721l-33 -185h-302l-192 -1090h302l-35 -200h-791zM734 1622l266 294h192l-308 -294h-150z" />
<glyph unicode="&#xce;" horiz-adv-x="995" d="M114 0l36 200h302l192 1090h-326l15 85q8 41 41 70.5t70 29.5h721l-33 -185h-302l-192 -1090h302l-35 -200h-791zM481 1622l266 294h192l162 -294h-151l-126 183l-193 -183h-150z" />
<glyph unicode="&#xcf;" horiz-adv-x="995" d="M114 0l36 200h302l192 1090h-326l15 85q8 41 41 70.5t70 29.5h721l-33 -185h-302l-192 -1090h302l-35 -200h-791zM534 1739q8 49 46 83t83 34t70.5 -34t17.5 -83t-46 -83t-83 -34t-70.5 34t-17.5 83zM909 1739q8 49 46 83t83 34t70.5 -34t17.5 -83t-46 -83t-83 -34 t-70.5 34t-17.5 83z" />
<glyph unicode="&#xd0;" horiz-adv-x="1345" d="M206 650l30 175h117l97 550q8 41 40.5 70.5t69.5 29.5h303q342 0 462.5 -194.5t52.5 -581.5q-61 -347 -256.5 -523t-519.5 -176h-395l115 650h-116zM429 200h209q248 0 377 118.5t176 384.5q34 193 16.5 320t-109.5 189.5t-271 62.5h-209l-79 -450h418l-31 -175h-418z " />
<glyph unicode="&#xd1;" horiz-adv-x="1191" d="M91 0l242 1375q8 41 41 70.5t70 29.5h70l466 -1106l195 1106h186l-260 -1475h-186l-451 1060l-187 -1060h-186zM586 1715q15 89 83.5 149t147.5 60q35 0 63.5 -13t48.5 -31.5t38.5 -37t42 -31.5t49.5 -13q12 0 23.5 10t13.5 24q2 8 0 15l159 78q13 -44 4 -93 q-15 -89 -83.5 -149t-147.5 -60q-35 0 -63.5 13t-48.5 31.5t-38.5 37t-42 31.5t-49.5 13q-12 0 -23 -10t-13 -24q-2 -7 0 -15l-159 -78q-14 46 -5 93z" />
<glyph unicode="&#xd2;" horiz-adv-x="1258" d="M223 749q23 130 59 239t92.5 205.5t129 163t172.5 105t220 38.5q536 0 400 -768q-23 -131 -58.5 -240t-91.5 -206.5t-128 -165t-172 -106.5t-220 -39q-540 0 -403 774zM388 533q0 -97 23.5 -180.5t86.5 -130.5t163 -47q98 0 177 45.5t131.5 126.5t86.5 175.5t54 210.5 q16 93 20.5 171.5t-7 153.5t-41 127t-85.5 83.5t-136 31.5q-79 0 -146.5 -30t-116 -81t-87 -123t-62.5 -149.5t-40 -168.5q-21 -118 -21 -215zM652 1916h192l162 -294h-150z" />
<glyph unicode="&#xd3;" horiz-adv-x="1258" d="M223 749q23 130 59 239t92.5 205.5t129 163t172.5 105t220 38.5q536 0 400 -768q-23 -131 -58.5 -240t-91.5 -206.5t-128 -165t-172 -106.5t-220 -39q-540 0 -403 774zM388 533q0 -97 23.5 -180.5t86.5 -130.5t163 -47q98 0 177 45.5t131.5 126.5t86.5 175.5t54 210.5 q16 93 20.5 171.5t-7 153.5t-41 127t-85.5 83.5t-136 31.5q-79 0 -146.5 -30t-116 -81t-87 -123t-62.5 -149.5t-40 -168.5q-21 -118 -21 -215zM875 1622l266 294h192l-308 -294h-150z" />
<glyph unicode="&#xd4;" horiz-adv-x="1258" d="M223 749q23 130 59 239t92.5 205.5t129 163t172.5 105t220 38.5q536 0 400 -768q-23 -131 -58.5 -240t-91.5 -206.5t-128 -165t-172 -106.5t-220 -39q-540 0 -403 774zM388 533q0 -97 23.5 -180.5t86.5 -130.5t163 -47q98 0 177 45.5t131.5 126.5t86.5 175.5t54 210.5 q16 93 20.5 171.5t-7 153.5t-41 127t-85.5 83.5t-136 31.5q-79 0 -146.5 -30t-116 -81t-87 -123t-62.5 -149.5t-40 -168.5q-21 -118 -21 -215zM622 1622l266 294h192l162 -294h-151l-126 183l-193 -183h-150z" />
<glyph unicode="&#xd5;" horiz-adv-x="1258" d="M223 749q23 130 59 239t92.5 205.5t129 163t172.5 105t220 38.5q536 0 400 -768q-23 -131 -58.5 -240t-91.5 -206.5t-128 -165t-172 -106.5t-220 -39q-540 0 -403 774zM388 533q0 -97 23.5 -180.5t86.5 -130.5t163 -47q98 0 177 45.5t131.5 126.5t86.5 175.5t54 210.5 q16 93 20.5 171.5t-7 153.5t-41 127t-85.5 83.5t-136 31.5q-79 0 -146.5 -30t-116 -81t-87 -123t-62.5 -149.5t-40 -168.5q-21 -118 -21 -215zM621 1715q15 89 83.5 149t147.5 60q35 0 63.5 -13t48.5 -31.5t38.5 -37t42 -31.5t49.5 -13q12 0 23.5 10t13.5 24q1 8 0 15 l159 78q13 -44 4 -93q-15 -89 -83.5 -149t-147.5 -60q-35 0 -63.5 13t-48.5 31.5t-38.5 37t-42 31.5t-49.5 13q-12 0 -23 -10t-13 -24q-1 -7 0 -15l-159 -78q-14 46 -5 93z" />
<glyph unicode="&#xd6;" horiz-adv-x="1258" d="M223 749q23 130 59 239t92.5 205.5t129 163t172.5 105t220 38.5q536 0 400 -768q-23 -131 -58.5 -240t-91.5 -206.5t-128 -165t-172 -106.5t-220 -39q-540 0 -403 774zM388 533q0 -97 23.5 -180.5t86.5 -130.5t163 -47q98 0 177 45.5t131.5 126.5t86.5 175.5t54 210.5 q16 93 20.5 171.5t-7 153.5t-41 127t-85.5 83.5t-136 31.5q-79 0 -146.5 -30t-116 -81t-87 -123t-62.5 -149.5t-40 -168.5q-21 -118 -21 -215zM675 1739q8 49 46 83t83 34t70.5 -34t17.5 -83t-46 -83t-83 -34t-70.5 34t-17.5 83zM1050 1739q8 49 46 83t83 34t70.5 -34 t17.5 -83t-46 -83t-83 -34t-70.5 34t-17.5 83z" />
<glyph unicode="&#xd7;" horiz-adv-x="860" d="M175 475l242 219l-119 158q-16 22 -16 51q0 54 41 90l78 71l173 -229l235 213l111 -148l-235 -212l167 -222l-156 -142l-167 222l-243 -219z" />
<glyph unicode="&#xd8;" horiz-adv-x="1258" d="M88 -83l173 241q-108 192 -38 591q23 130 59 239t92.5 205.5t129 163t172.5 105t220 38.5q167 0 269 -75l51 71h215l-154 -215q82 -192 19 -549q-23 -131 -58.5 -240t-91.5 -206.5t-128 -165t-172 -106.5t-220 -39q-145 0 -241 56l-82 -114h-215zM408 364l627 879 q-67 57 -174 57q-79 0 -146.5 -30t-116 -81t-87 -123t-62.5 -149.5t-40 -168.5q-43 -242 -1 -384zM514 212q60 -37 147 -37q98 0 177 45.5t131.5 126.5t86.5 175.5t54 210.5q36 203 13 332z" />
<glyph unicode="&#xd9;" d="M184 525l149 850q8 41 41 70.5t70 29.5h93l-167 -950q-30 -172 23.5 -248.5t209.5 -76.5t237 76.5t111 248.5l167 950h186l-167 -950q-45 -255 -190.5 -390t-378.5 -135t-331 134.5t-53 390.5zM586 1916h192l162 -294h-150z" />
<glyph unicode="&#xda;" d="M184 525l149 850q8 41 41 70.5t70 29.5h93l-167 -950q-30 -172 23.5 -248.5t209.5 -76.5t237 76.5t111 248.5l167 950h186l-167 -950q-45 -255 -190.5 -390t-378.5 -135t-331 134.5t-53 390.5zM809 1622l266 294h192l-308 -294h-150z" />
<glyph unicode="&#xdb;" d="M184 525l149 850q8 41 41 70.5t70 29.5h93l-167 -950q-30 -172 23.5 -248.5t209.5 -76.5t237 76.5t111 248.5l167 950h186l-167 -950q-45 -255 -190.5 -390t-378.5 -135t-331 134.5t-53 390.5zM556 1622l266 294h192l162 -294h-151l-126 183l-193 -183h-150z" />
<glyph unicode="&#xdc;" d="M184 525l149 850q8 41 41 70.5t70 29.5h93l-167 -950q-30 -172 23.5 -248.5t209.5 -76.5t237 76.5t111 248.5l167 950h186l-167 -950q-45 -255 -190.5 -390t-378.5 -135t-331 134.5t-53 390.5zM609 1739q8 49 46 83t83 34t70.5 -34t17.5 -83t-46 -83t-83 -34t-70.5 34 t-17.5 83zM984 1739q8 49 46 83t83 34t70.5 -34t17.5 -83t-46 -83t-83 -34t-70.5 34t-17.5 83z" />
<glyph unicode="&#xdd;" d="M294 1150l39 225q8 41 41 70.5t70 29.5h93l-57 -325q-30 -172 24 -248.5t210 -76.5t236.5 76.5t110.5 248.5l57 325h186l-57 -325q-40 -228 -161 -360.5t-314 -158.5l-111 -631h-186l111 631q-184 25 -258.5 158t-33.5 361zM809 1622l266 294h192l-308 -294h-150z" />
<glyph unicode="&#xde;" horiz-adv-x="1181" d="M91 0l242 1375q8 41 41 70.5t70 29.5h93l-35 -200h349q212 0 319.5 -108t70.5 -317t-182.5 -317t-357.5 -108h-349l-75 -425h-186zM387 625h349q134 0 215.5 51t103.5 174t-41.5 174t-198.5 51h-348z" />
<glyph unicode="&#xdf;" horiz-adv-x="998" d="M87 0l155 883q16 92 41 176.5t65.5 167t90 142.5t119 97t149.5 37q93 0 154 -58t81.5 -150.5t1.5 -199.5q-27 -156 -126 -289q90 -52 135 -161t22 -241q-31 -174 -161.5 -301.5t-281.5 -127.5q-121 0 -202 84l133 158q40 -42 101 -42q80 0 148 68.5t85 161.5 q17 99 -33 170.5t-136 72.5q-34 0 -54.5 29.5t-13.5 70.5q4 25 23 47t44 44t51.5 51.5t51 82.5t36.5 122q14 83 -10.5 145.5t-83.5 62.5q-46 0 -84.5 -27t-64 -67.5t-47 -101.5t-34 -114t-24.5 -120l-154 -873h-177z" />
<glyph unicode="&#xe0;" horiz-adv-x="963" d="M147 463q22 127 95 238.5t180 180t221 68.5q57 0 110.5 -37t81.5 -102l18 104l184 35l-167 -950h-89q-36 0 -57 30t-14 70l2 13q-52 -65 -118 -101.5t-122 -36.5q-115 0 -198 68t-116 180t-11 240zM325 465q-20 -116 32 -203t151 -87q114 0 189 78.5t99 216.5 q23 127 -28 203.5t-159 76.5q-98 0 -181 -86t-103 -199zM423 1416h192l162 -294h-150z" />
<glyph unicode="&#xe1;" horiz-adv-x="963" d="M147 463q22 127 95 238.5t180 180t221 68.5q57 0 110.5 -37t81.5 -102l18 104l184 35l-167 -950h-89q-36 0 -57 30t-14 70l2 13q-52 -65 -118 -101.5t-122 -36.5q-115 0 -198 68t-116 180t-11 240zM325 465q-20 -116 32 -203t151 -87q114 0 189 78.5t99 216.5 q23 127 -28 203.5t-159 76.5q-98 0 -181 -86t-103 -199zM646 1122l266 294h192l-308 -294h-150z" />
<glyph unicode="&#xe2;" horiz-adv-x="963" d="M147 463q22 127 95 238.5t180 180t221 68.5q57 0 110.5 -37t81.5 -102l18 104l184 35l-167 -950h-89q-36 0 -57 30t-14 70l2 13q-52 -65 -118 -101.5t-122 -36.5q-115 0 -198 68t-116 180t-11 240zM325 465q-20 -116 32 -203t151 -87q114 0 189 78.5t99 216.5 q23 127 -28 203.5t-159 76.5q-98 0 -181 -86t-103 -199zM393 1122l266 294h192l162 -294h-151l-126 183l-193 -183h-150z" />
<glyph unicode="&#xe3;" horiz-adv-x="963" d="M147 463q22 127 95 238.5t180 180t221 68.5q57 0 110.5 -37t81.5 -102l18 104l184 35l-167 -950h-89q-36 0 -57 30t-14 70l2 13q-52 -65 -118 -101.5t-122 -36.5q-115 0 -198 68t-116 180t-11 240zM325 465q-20 -116 32 -203t151 -87q114 0 189 78.5t99 216.5 q23 127 -28 203.5t-159 76.5q-98 0 -181 -86t-103 -199zM392 1215q15 89 83.5 149t147.5 60q35 0 63.5 -13t48.5 -31.5t38.5 -37t42 -31.5t49.5 -13q12 0 23.5 10t13.5 24q2 8 0 15l159 78q13 -44 4 -93q-15 -89 -83.5 -149t-147.5 -60q-35 0 -63.5 13t-48.5 31.5t-38.5 37 t-42 31.5t-49.5 13q-12 0 -23 -10t-13 -24q-2 -7 0 -15l-159 -78q-14 46 -5 93z" />
<glyph unicode="&#xe4;" horiz-adv-x="963" d="M147 463q22 127 95 238.5t180 180t221 68.5q57 0 110.5 -37t81.5 -102l18 104l184 35l-167 -950h-89q-36 0 -57 30t-14 70l2 13q-52 -65 -118 -101.5t-122 -36.5q-115 0 -198 68t-116 180t-11 240zM325 465q-20 -116 32 -203t151 -87q114 0 189 78.5t99 216.5 q23 127 -28 203.5t-159 76.5q-98 0 -181 -86t-103 -199zM445 1239q8 49 46 83t83 34t70.5 -34t17.5 -83t-46 -83t-83 -34t-70.5 34t-17.5 83zM820 1239q8 49 46 83t83 34t70.5 -34t17.5 -83t-46 -83t-83 -34t-70.5 34t-17.5 83z" />
<glyph unicode="&#xe5;" horiz-adv-x="963" d="M147 463q22 127 95 238.5t180 180t221 68.5q57 0 110.5 -37t81.5 -102l18 104l184 35l-167 -950h-89q-36 0 -57 30t-14 70l2 13q-52 -65 -118 -101.5t-122 -36.5q-115 0 -198 68t-116 180t-11 240zM325 465q-20 -116 32 -203t151 -87q114 0 189 78.5t99 216.5 q23 127 -28 203.5t-159 76.5q-98 0 -181 -86t-103 -199zM551 1340q16 91 87 155t155 64t132 -64t32 -155t-86.5 -154.5t-154.5 -63.5t-132.5 63.5t-32.5 154.5zM667 1340q-7 -39 14 -66t57 -27t66 27t37 66t-13.5 66.5t-56.5 27.5t-66.5 -27.5t-37.5 -66.5z" />
<glyph unicode="&#xe6;" horiz-adv-x="1483" d="M136 278q16 93 77 162.5t140.5 103t163.5 33.5q115 0 221 -116q21 144 -8.5 216.5t-125.5 72.5q-128 0 -213 -110l-136 91q68 99 167.5 159t217.5 60q158 0 230 -120q141 120 296 120q111 0 195 -63t121 -170.5t15 -232.5l-18 -104h-660q7 -86 67 -145.5t150 -59.5 q52 0 105.5 22.5t95.5 61.5l103 -125q-73 -76 -162 -117.5t-177 -41.5t-159.5 45t-119.5 122q-67 -71 -156.5 -119t-153.5 -48q-84 0 -152 34t-104.5 104.5t-19.5 164.5zM317 269q-7 -40 26.5 -67t106.5 -27q159 0 253 84l8 46q-66 72 -226 72q-67 0 -114 -33t-54 -75z M877 580h467q-12 73 -66.5 121.5t-133.5 48.5t-152.5 -49t-114.5 -121z" />
<glyph unicode="&#xe7;" horiz-adv-x="951" d="M144 -292l129 60q10 -41 39 -67.5t74 -26.5q36 0 66 19.5t36 54.5q4 21 -6.5 35t-29.5 14q-10 0 -29.5 -8t-27.5 -8q-26 0 -40.5 23.5t-9.5 52.5q1 11 7 21l48 96q-140 38 -212.5 174t-42.5 308q23 131 101 245t190 181.5t230 67.5q131 0 219 -80.5t114 -201.5l-170 -79 q-16 74 -61 117.5t-134 43.5q-107 0 -199 -89t-113 -210t39.5 -209.5t166.5 -88.5q159 0 252 160l142 -78q-63 -108 -166.5 -183.5t-223.5 -87.5l-15 -29q56 -15 85.5 -67t17.5 -124q-17 -97 -94 -158.5t-165 -61.5q-84 0 -141.5 53t-75.5 131z" />
<glyph unicode="&#xe8;" horiz-adv-x="977" d="M147 465q23 130 100 241.5t187 177.5t225 66q111 0 195.5 -63t121.5 -170.5t15 -232.5l-18 -104h-661q7 -86 67 -145.5t150 -59.5q64 0 110 21t92 63l103 -125q-73 -76 -162.5 -117.5t-177.5 -41.5q-117 0 -205.5 67t-126.5 179.5t-15 243.5zM357 580h467 q-12 73 -66.5 121.5t-133.5 48.5t-152.5 -49t-114.5 -121zM452 1416h192l162 -294h-150z" />
<glyph unicode="&#xe9;" horiz-adv-x="977" d="M147 465q23 130 100 241.5t187 177.5t225 66q111 0 195.5 -63t121.5 -170.5t15 -232.5l-18 -104h-661q7 -86 67 -145.5t150 -59.5q64 0 110 21t92 63l103 -125q-73 -76 -162.5 -117.5t-177.5 -41.5q-117 0 -205.5 67t-126.5 179.5t-15 243.5zM357 580h467 q-12 73 -66.5 121.5t-133.5 48.5t-152.5 -49t-114.5 -121zM675 1122l266 294h192l-308 -294h-150z" />
<glyph unicode="&#xea;" horiz-adv-x="977" d="M147 465q23 130 100 241.5t187 177.5t225 66q111 0 195.5 -63t121.5 -170.5t15 -232.5l-18 -104h-661q7 -86 67 -145.5t150 -59.5q64 0 110 21t92 63l103 -125q-73 -76 -162.5 -117.5t-177.5 -41.5q-117 0 -205.5 67t-126.5 179.5t-15 243.5zM357 580h467 q-12 73 -66.5 121.5t-133.5 48.5t-152.5 -49t-114.5 -121zM423 1122l266 294h192l162 -294h-151l-126 183l-193 -183h-150z" />
<glyph unicode="&#xeb;" horiz-adv-x="977" d="M147 465q23 130 100 241.5t187 177.5t225 66q111 0 195.5 -63t121.5 -170.5t15 -232.5l-18 -104h-661q7 -86 67 -145.5t150 -59.5q64 0 110 21t92 63l103 -125q-73 -76 -162.5 -117.5t-177.5 -41.5q-117 0 -205.5 67t-126.5 179.5t-15 243.5zM357 580h467 q-12 73 -66.5 121.5t-133.5 48.5t-152.5 -49t-114.5 -121zM475 1239q8 49 46 83t83 34t70.5 -34t17.5 -83t-46 -83t-83 -34t-70.5 34t-17.5 83zM850 1239q8 49 46 83t83 34t70.5 -34t17.5 -83t-46 -83t-83 -34t-70.5 34t-17.5 83z" />
<glyph unicode="&#xec;" horiz-adv-x="368" d="M90 1416h192l162 -294h-150zM91 0l151 855q8 41 37.5 68t67.5 27h89l-167 -950h-178z" />
<glyph unicode="&#xed;" horiz-adv-x="368" d="M91 0l151 855q8 41 37.5 68t67.5 27h89l-167 -950h-178zM313 1122l266 294h192l-308 -294h-150z" />
<glyph unicode="&#xee;" horiz-adv-x="368" d="M61 1122l266 294h192l162 -294h-151l-126 183l-193 -183h-150zM91 0l151 855q8 41 37.5 68t67.5 27h89l-167 -950h-178z" />
<glyph unicode="&#xef;" horiz-adv-x="368" d="M91 0l151 855q8 41 37.5 68t67.5 27h89l-167 -950h-178zM113 1239q8 49 46 83t83 34t70.5 -34t17.5 -83t-46 -83t-83 -34t-70.5 34t-17.5 83zM488 1239q8 49 46 83t83 34t70.5 -34t17.5 -83t-46 -83t-83 -34t-70.5 34t-17.5 83z" />
<glyph unicode="&#xf0;" horiz-adv-x="1012" d="M168 462q25 139 103 259t191 192t232 72q65 0 125.5 -23.5t90.5 -81.5q-13 162 -89 320l-126 -45l-10 95l92 33q-56 96 -134 192h209q54 -60 92 -132l124 45l10 -95l-94 -34q108 -271 49 -603q-22 -128 -70.5 -247t-118.5 -217t-167.5 -157.5t-206.5 -59.5 q-108 0 -185.5 68t-108 179.5t-8.5 239.5zM346 462q-20 -114 26.5 -200.5t136.5 -86.5q66 0 124 38.5t99.5 103.5t70.5 138t47 155q-13 75 -63 125t-127 50q-107 0 -199 -96.5t-115 -226.5z" />
<glyph unicode="&#xf1;" horiz-adv-x="943" d="M87 0l150 855q7 38 38.5 66.5t67.5 28.5h89l-19 -108q113 108 225 108q131 0 206.5 -63.5t91.5 -174.5t-8 -261l-79 -451h-178l78 445q16 96 14.5 163.5t-41 104.5t-122.5 37q-63 0 -107.5 -20t-73 -62.5t-45.5 -94t-31 -128.5l-79 -445h-177zM392 1215q15 89 83.5 149 t147.5 60q35 0 63.5 -13t48.5 -31.5t38.5 -37t42 -31.5t49.5 -13q12 0 23.5 10t13.5 24q2 8 0 15l159 78q13 -44 4 -93q-15 -89 -83.5 -149t-147.5 -60q-35 0 -63.5 13t-48.5 31.5t-38.5 37t-42 31.5t-49.5 13q-12 0 -23 -10t-13 -24q-2 -7 0 -15l-159 -78q-14 46 -5 93z " />
<glyph unicode="&#xf2;" horiz-adv-x="962" d="M146 462q22 128 95.5 239.5t181.5 180t223 68.5q114 0 197.5 -68t117.5 -179.5t12 -238.5q-17 -95 -64.5 -184.5t-113.5 -156.5t-151 -107.5t-172 -40.5q-114 0 -197.5 68.5t-117 180t-11.5 238.5zM324 461q-20 -114 33 -200t152 -86q100 0 182.5 87t102.5 202 q20 114 -32.5 200t-150.5 86q-100 0 -183.5 -87t-103.5 -202zM435 1416h192l162 -294h-150z" />
<glyph unicode="&#xf3;" horiz-adv-x="962" d="M146 462q22 128 95.5 239.5t181.5 180t223 68.5q114 0 197.5 -68t117.5 -179.5t12 -238.5q-17 -95 -64.5 -184.5t-113.5 -156.5t-151 -107.5t-172 -40.5q-114 0 -197.5 68.5t-117 180t-11.5 238.5zM324 461q-20 -114 33 -200t152 -86q100 0 182.5 87t102.5 202 q20 114 -32.5 200t-150.5 86q-100 0 -183.5 -87t-103.5 -202zM658 1122l266 294h192l-308 -294h-150z" />
<glyph unicode="&#xf4;" horiz-adv-x="962" d="M146 462q22 128 95.5 239.5t181.5 180t223 68.5q114 0 197.5 -68t117.5 -179.5t12 -238.5q-17 -95 -64.5 -184.5t-113.5 -156.5t-151 -107.5t-172 -40.5q-114 0 -197.5 68.5t-117 180t-11.5 238.5zM324 461q-20 -114 33 -200t152 -86q100 0 182.5 87t102.5 202 q20 114 -32.5 200t-150.5 86q-100 0 -183.5 -87t-103.5 -202zM406 1122l266 294h192l162 -294h-151l-126 183l-193 -183h-150z" />
<glyph unicode="&#xf5;" horiz-adv-x="962" d="M146 462q22 128 95.5 239.5t181.5 180t223 68.5q114 0 197.5 -68t117.5 -179.5t12 -238.5q-17 -95 -64.5 -184.5t-113.5 -156.5t-151 -107.5t-172 -40.5q-114 0 -197.5 68.5t-117 180t-11.5 238.5zM324 461q-20 -114 33 -200t152 -86q100 0 182.5 87t102.5 202 q20 114 -32.5 200t-150.5 86q-100 0 -183.5 -87t-103.5 -202zM405 1215q15 89 83.5 149t147.5 60q35 0 63.5 -13t48.5 -31.5t38.5 -37t42 -31.5t49.5 -13q12 0 23.5 10t13.5 24q1 8 0 15l159 78q13 -44 4 -93q-15 -89 -83.5 -149t-147.5 -60q-35 0 -63.5 13t-48.5 31.5 t-38.5 37t-42 31.5t-49.5 13q-12 0 -23 -10t-13 -24q-1 -7 0 -15l-159 -78q-14 46 -5 93z" />
<glyph unicode="&#xf6;" horiz-adv-x="962" d="M146 462q22 128 95.5 239.5t181.5 180t223 68.5q114 0 197.5 -68t117.5 -179.5t12 -238.5q-17 -95 -64.5 -184.5t-113.5 -156.5t-151 -107.5t-172 -40.5q-114 0 -197.5 68.5t-117 180t-11.5 238.5zM324 461q-20 -114 33 -200t152 -86q100 0 182.5 87t102.5 202 q20 114 -32.5 200t-150.5 86q-100 0 -183.5 -87t-103.5 -202zM458 1239q8 49 46 83t83 34t70.5 -34t17.5 -83t-46 -83t-83 -34t-70.5 34t-17.5 83zM833 1239q8 49 46 83t83 34t70.5 -34t17.5 -83t-46 -83t-83 -34t-70.5 34t-17.5 83z" />
<glyph unicode="&#xf7;" horiz-adv-x="902" d="M201 625l18 100q8 41 40.5 70.5t69.5 29.5h628l-35 -200h-721zM409 355q8 49 46.5 83t83.5 34t70.5 -34t17.5 -83t-46 -83t-83 -34t-71 34t-18 83zM533 1055q8 49 46 83t83 34t70.5 -34t17.5 -83t-46 -83t-83 -34t-70.5 34t-17.5 83z" />
<glyph unicode="&#xf8;" horiz-adv-x="1007" d="M68 -108l167 223q-48 68 -66 159t-1 189q17 95 64 184t113 155.5t150.5 107t170.5 40.5q87 0 158 -44l61 121h209l-154 -246q85 -141 53 -324q-22 -127 -95 -239t-181 -180.5t-223 -68.5q-75 0 -136 32l-82 -109h-208zM345 458q-17 -98 17 -174l341 452q-33 14 -70 14 q-100 0 -183.5 -88t-104.5 -204zM483 176q26 -7 46 -7q100 0 183 87.5t104 204.5q14 78 -8 146z" />
<glyph unicode="&#xf9;" horiz-adv-x="943" d="M159.5 295q-7.5 92 14.5 204l63 356q7 38 38.5 66.5t67.5 28.5h89l-79 -445q-9 -54 -12 -96t3 -83t23.5 -67.5t51.5 -42.5t84 -16t89.5 16t66.5 42.5t47.5 67.5t32.5 83t21 96l78 445h178l-79 -451q-41 -234 -157.5 -366.5t-311.5 -132.5q-99 0 -167 36t-101 101.5 t-40.5 157.5zM423 1416h192l162 -294h-150z" />
<glyph unicode="&#xfa;" horiz-adv-x="943" d="M159.5 295q-7.5 92 14.5 204l63 356q7 38 38.5 66.5t67.5 28.5h89l-79 -445q-9 -54 -12 -96t3 -83t23.5 -67.5t51.5 -42.5t84 -16t89.5 16t66.5 42.5t47.5 67.5t32.5 83t21 96l78 445h178l-79 -451q-41 -234 -157.5 -366.5t-311.5 -132.5q-99 0 -167 36t-101 101.5 t-40.5 157.5zM646 1122l266 294h192l-308 -294h-150z" />
<glyph unicode="&#xfb;" horiz-adv-x="943" d="M159.5 295q-7.5 92 14.5 204l63 356q7 38 38.5 66.5t67.5 28.5h89l-79 -445q-9 -54 -12 -96t3 -83t23.5 -67.5t51.5 -42.5t84 -16t89.5 16t66.5 42.5t47.5 67.5t32.5 83t21 96l78 445h178l-79 -451q-41 -234 -157.5 -366.5t-311.5 -132.5q-99 0 -167 36t-101 101.5 t-40.5 157.5zM393 1122l266 294h192l162 -294h-151l-126 183l-193 -183h-150z" />
<glyph unicode="&#xfc;" horiz-adv-x="943" d="M159.5 295q-7.5 92 14.5 204l63 356q7 38 38.5 66.5t67.5 28.5h89l-79 -445q-9 -54 -12 -96t3 -83t23.5 -67.5t51.5 -42.5t84 -16t89.5 16t66.5 42.5t47.5 67.5t32.5 83t21 96l78 445h178l-79 -451q-41 -234 -157.5 -366.5t-311.5 -132.5q-99 0 -167 36t-101 101.5 t-40.5 157.5zM445 1239q8 49 46 83t83 34t70.5 -34t17.5 -83t-46 -83t-83 -34t-70.5 34t-17.5 83zM820 1239q8 49 46 83t83 34t70.5 -34t17.5 -83t-46 -83t-83 -34t-70.5 34t-17.5 83z" />
<glyph unicode="&#xfd;" horiz-adv-x="943" d="M104 -204l170 104q19 -55 62 -90t106 -35q103 0 160 78.5t82 221.5l6 33q-113 -108 -222 -108q-195 0 -265 132.5t-29 366.5l63 356q7 38 38.5 66.5t67.5 28.5h89l-79 -445q-16 -96 -14 -163.5t41.5 -104.5t122.5 -37q63 0 107.5 20t73 62.5t45.5 94t31 128.5l78 445h178 l-157 -893q-38 -218 -154.5 -350t-296.5 -132q-112 0 -191 62.5t-113 158.5zM646 1122l266 294h192l-308 -294h-150z" />
<glyph unicode="&#xfe;" horiz-adv-x="986" d="M14 -410l315 1785q8 43 38.5 71.5t68.5 28.5h89l-117 -663q52 65 117.5 101.5t121.5 36.5q115 0 198.5 -68t116.5 -180t11 -240q-22 -127 -95.5 -238.5t-181 -180t-220.5 -68.5q-57 0 -110 37t-81 102l-93 -524h-178zM323 455q-23 -127 28.5 -203.5t159.5 -76.5 q98 0 181 86t103 199q20 116 -32 203t-151 87q-114 0 -189.5 -78.5t-99.5 -216.5z" />
<glyph unicode="&#xff;" horiz-adv-x="943" d="M104 -204l170 104q19 -55 62 -90t106 -35q103 0 160 78.5t82 221.5l6 33q-113 -108 -222 -108q-195 0 -265 132.5t-29 366.5l63 356q7 38 38.5 66.5t67.5 28.5h89l-79 -445q-16 -96 -14 -163.5t41.5 -104.5t122.5 -37q63 0 107.5 20t73 62.5t45.5 94t31 128.5l78 445h178 l-157 -893q-38 -218 -154.5 -350t-296.5 -132q-112 0 -191 62.5t-113 158.5zM445 1239q8 49 46 83t83 34t70.5 -34t17.5 -83t-46 -83t-83 -34t-70.5 34t-17.5 83zM820 1239q8 49 46 83t83 34t70.5 -34t17.5 -83t-46 -83t-83 -34t-70.5 34t-17.5 83z" />
<glyph unicode="&#x152;" horiz-adv-x="1768" d="M196.5 507.5q3.5 108.5 26.5 241.5q129 726 668 726h1047l-36 -200h-674l-70 -400h511l-35 -200h-512l-83 -475h674l-35 -200h-1048q-122 0 -209.5 38t-136.5 103t-70 161.5t-17.5 205zM409 748q-97 -548 257 -548h187l189 1075h-186q-354 0 -447 -527z" />
<glyph unicode="&#x153;" horiz-adv-x="1566" d="M146 462q17 95 64.5 184.5t113.5 156t150.5 107t170.5 40.5t154.5 -42t112.5 -115q73 74 160 115.5t175 41.5q111 0 196 -63t122 -170.5t15 -232.5l-18 -104h-661v-1q7 -86 67 -145t150 -59q52 0 106 22.5t96 61.5l103 -125q-73 -76 -162.5 -117.5t-178.5 -41.5 q-90 0 -163.5 42.5t-121.5 117.5q-150 -160 -326 -160q-114 0 -197 68.5t-116.5 180t-11.5 238.5zM324 461q-20 -114 33 -200t152 -86q100 0 182.5 87t102.5 202q20 114 -32.5 200t-150.5 86q-100 0 -183.5 -87t-103.5 -202zM946 580h467q-12 73 -66.5 121.5t-133.5 48.5 t-152.5 -49t-114.5 -121z" />
<glyph unicode="&#x178;" d="M294 1150l39 225q8 41 41 70.5t70 29.5h93l-57 -325q-30 -172 24 -248.5t210 -76.5t236.5 76.5t110.5 248.5l57 325h186l-57 -325q-40 -228 -161 -360.5t-314 -158.5l-111 -631h-186l111 631q-184 25 -258.5 158t-33.5 361zM609 1739q8 49 46 83t83 34t70.5 -34t17.5 -83 t-46 -83t-83 -34t-70.5 34t-17.5 83zM984 1739q8 49 46 83t83 34t70.5 -34t17.5 -83t-46 -83t-83 -34t-70.5 34t-17.5 83z" />
<glyph unicode="&#x2c6;" horiz-adv-x="802" d="M294 1150l266 294h192l162 -294h-151l-126 183l-193 -183h-150z" />
<glyph unicode="&#x2dc;" horiz-adv-x="512" d="M-172 1065q15 89 83.5 149t147.5 60q35 0 63.5 -13t48.5 -31.5t38.5 -37t42 -31.5t49.5 -13q12 0 23.5 10t13.5 24q2 8 0 15l159 78q13 -44 4 -93q-15 -89 -83.5 -149t-147.5 -60q-35 0 -63.5 13t-48.5 31.5t-38.5 37t-42 31.5t-49.5 13q-12 0 -23 -10t-13 -24 q-2 -7 0 -15l-159 -78q-14 46 -5 93z" />
<glyph unicode="&#x2000;" horiz-adv-x="986" />
<glyph unicode="&#x2001;" horiz-adv-x="1973" />
<glyph unicode="&#x2002;" horiz-adv-x="986" />
<glyph unicode="&#x2003;" horiz-adv-x="1973" />
<glyph unicode="&#x2004;" horiz-adv-x="657" />
<glyph unicode="&#x2005;" horiz-adv-x="493" />
<glyph unicode="&#x2006;" horiz-adv-x="328" />
<glyph unicode="&#x2007;" horiz-adv-x="328" />
<glyph unicode="&#x2008;" horiz-adv-x="246" />
<glyph unicode="&#x2009;" horiz-adv-x="394" />
<glyph unicode="&#x200a;" horiz-adv-x="109" />
<glyph unicode="&#x2010;" horiz-adv-x="740" d="M201 625l18 100q8 41 40.5 70.5t69.5 29.5h465l-35 -200h-558z" />
<glyph unicode="&#x2011;" horiz-adv-x="740" d="M201 625l18 100q8 41 40.5 70.5t69.5 29.5h465l-35 -200h-558z" />
<glyph unicode="&#x2012;" horiz-adv-x="740" d="M201 625l18 100q8 41 40.5 70.5t69.5 29.5h465l-35 -200h-558z" />
<glyph unicode="&#x2013;" horiz-adv-x="948" d="M201 625l18 100q8 41 40.5 70.5t69.5 29.5h674l-35 -200h-767z" />
<glyph unicode="&#x2014;" horiz-adv-x="1900" d="M201 625l18 100q8 41 40.5 70.5t69.5 29.5h1626l-35 -200h-1719z" />
<glyph unicode="&#x2018;" horiz-adv-x="376" d="M307 1223q30 173 179 274l40 -82q-46 -30 -78 -76q41 -5 62.5 -37.5t13.5 -78.5q-8 -49 -46 -83t-83 -34t-70.5 34t-17.5 83z" />
<glyph unicode="&#x2019;" horiz-adv-x="345" d="M333 1188q46 30 78 76q-41 5 -63 38t-14 78q8 49 46.5 83t83.5 34t70.5 -34t17.5 -83q-30 -173 -179 -274z" />
<glyph unicode="&#x201a;" horiz-adv-x="376" d="M108 98q8 46 41.5 78.5t75.5 37.5q-17 47 -50 76l68 82q113 -101 83 -274q-8 -49 -46.5 -83t-83.5 -34t-70.5 34t-17.5 83z" />
<glyph unicode="&#x201c;" horiz-adv-x="734" d="M307 1223q30 173 179 274l40 -82q-46 -30 -78 -76q41 -5 62.5 -37.5t13.5 -78.5q-8 -49 -46 -83t-83 -34t-70.5 34t-17.5 83zM632 1223q30 173 179 274l40 -82q-46 -30 -78 -76q41 -5 62.5 -37.5t13.5 -78.5q-8 -49 -46 -83t-83 -34t-70.5 34t-17.5 83z" />
<glyph unicode="&#x201d;" horiz-adv-x="709" d="M308 1188q46 30 78 76q-41 5 -63 38t-14 78q8 49 46.5 83t83.5 34t70.5 -34t17.5 -83q-30 -173 -179 -274zM608 1188q46 30 78 76q-41 5 -63 38t-14 78q8 49 46.5 83t83.5 34t70.5 -34t17.5 -83q-30 -173 -179 -274z" />
<glyph unicode="&#x201e;" horiz-adv-x="734" d="M-290 290q46 -30 78 -76q-41 -5 -62.5 -37.5t-13.5 -78.5q8 -49 46 -83t83 -34t70.5 34t17.5 83q-30 173 -179 274zM35 290q46 -30 78 -76q-41 -5 -62.5 -37.5t-13.5 -78.5q8 -49 46 -83t83 -34t70.5 34t17.5 83q-30 173 -179 274z" />
<glyph unicode="&#x2026;" horiz-adv-x="1227" d="M87 105q8 49 46 83t83 34t70.5 -34t17.5 -83t-46 -83t-83 -34t-70.5 34t-17.5 83zM496 105q8 49 46 83t83 34t70.5 -34t17.5 -83t-46 -83t-83 -34t-70.5 34t-17.5 83zM905 105q8 49 46 83t83 34t70.5 -34t17.5 -83t-46 -83t-83 -34t-70.5 34t-17.5 83z" />
<glyph unicode="&#x202f;" horiz-adv-x="394" />
<glyph unicode="&#x2039;" horiz-adv-x="455" d="M185 506q-3 13 1 32q3 19 10 32l208 386h129l-179 -418l32 -418h-130z" />
<glyph unicode="&#x203a;" horiz-adv-x="455" d="M112 120l179 418l-31 418h129l71 -386q3 -13 -1 -32q-3 -19 -10 -32l-208 -386h-129z" />
<glyph unicode="&#x205f;" horiz-adv-x="493" />
<glyph unicode="&#x20ac;" horiz-adv-x="1492" d="M166 425l31 175h102q2 67 13 128l4 22h-93l18 100q8 41 41 70.5t70 29.5h29q103 230 299 377t418 147q217 0 340 -142t130 -370h-190q-11 140 -93 226t-223 86q-145 0 -274.5 -89.5t-209.5 -234.5h378l-35 -200h-419l-4 -22q-11 -59 -9 -128h405l-31 -175h-341 q43 -115 133.5 -182.5t213.5 -67.5q144 0 258.5 91.5t174.5 239.5h189q-86 -234 -262 -382.5t-396 -148.5q-201 0 -338.5 124.5t-179.5 325.5h-149z" />
<glyph unicode="&#x2122;" horiz-adv-x="1655" d="M363 1518l10 60q5 24 24.5 42t41.5 18h516l-21 -120h-237l-135 -765h-111l135 765h-223zM963 753l145 825q5 24 24.5 42t41.5 18q27 0 39 -22l183 -304l309 326h83l-156 -885h-111l116 659l-274 -286l-172 286l-117 -659h-111z" />
<glyph unicode="&#x25fc;" horiz-adv-x="1065" d="M0 0v1065h1065v-1065h-1065z" />
</font>
</defs>
</svg>
